<svg viewBox="0 0 22 22" fill="none" xmlns="http://www.w3.org/2000/svg">
<g id="07">
<path id="Vector" d="M3.66797 4.66699C3.66797 4.11471 4.11568 3.66699 4.66797 3.66699H17.3346C17.8869 3.66699 18.3346 4.11471 18.3346 4.66699V5.65799C18.3345 6.14418 18.1413 6.61042 17.7975 6.95416L14.0442 10.7074C13.8567 10.895 13.7513 11.1493 13.7513 11.4145V16.6962C13.7513 17.1267 13.4759 17.5088 13.0675 17.6449L9.56753 18.8116C8.92 19.0274 8.2513 18.5455 8.2513 17.8629V11.8453C8.2513 11.5965 8.15858 11.3567 7.99124 11.1726L4.14464 6.94133C3.83796 6.60392 3.66802 6.16436 3.66797 5.70841V4.66699Z" fill="#494A52"/>
</g>
</svg>
