<svg data-name="google" viewBox="0 0 32 32" fill="inherit" xmlns="http://www.w3.org/2000/svg">
<path d="M20.5466 9.94303C19.2124 8.63007 17.4319 7.91481 15.5897 7.9442C12.2186 7.9442 9.3556 10.2909 8.33477 13.4508C7.7935 15.1067 7.79337 16.8996 8.33464 18.5555L8.33952 18.5557C9.36509 21.7107 12.2234 24.0573 15.5945 24.0573C17.3348 24.0573 18.8288 23.598 19.9867 22.7867V22.7834C21.3494 21.8525 22.28 20.3877 22.5696 18.7318H15.59V13.5976H27.7781C27.9301 14.4892 28.0013 15.4004 28.0013 16.3068C28.0013 20.3622 26.5966 23.7908 24.1526 26.1129L24.1551 26.115C22.0138 28.153 19.0748 29.3337 15.5897 29.3337C10.704 29.3337 6.23616 26.4922 4.04258 21.9899C2.20985 18.2225 2.20972 13.7838 4.04245 10.0164C6.23604 5.50932 10.7041 2.66789 15.5897 2.66789C18.7994 2.6287 21.8998 3.87307 24.2358 6.13644L20.5466 9.94303Z" fill="inherit"/>
</svg>
