<svg viewBox="0 0 48 48" fill="none" xmlns="http://www.w3.org/2000/svg">
<path id="Vector" d="M9.75772 27.5556L24.0003 22.2222L38.2429 27.5556M24 8C28.1585 11.6739 33.5861 13.5868 39.1327 13.3333C39.9403 16.0765 40.1874 18.9537 39.8593 21.7941C39.5313 24.6345 38.6348 27.38 37.2232 29.8676C35.8115 32.3552 33.9135 34.534 31.642 36.2746C29.3704 38.0152 26.7716 39.2821 24 40C21.2284 39.2821 18.6296 38.0152 16.358 36.2746C14.0865 34.534 12.1885 32.3552 10.7768 29.8676C9.36519 27.38 8.46871 24.6345 8.14067 21.7941C7.81263 18.9537 8.05972 16.0765 8.86726 13.3333C14.4139 13.5868 19.8415 11.6739 24 8Z" stroke="inherit" stroke-width="2" stroke-linecap="round" stroke-linejoin="round"/>
</svg>
