<svg viewBox="0 0 24 24">
<path d="M12 21C16.9706 21 21 16.9706 21 12C21 7.02944 16.9706 3 12 3C7.02944 3 3 7.02944 3 12C3 16.9706 7.02944 21 12 21Z" fill="#2DC2BB"/>
<path d="M11.9864 18C11.5314 18 11.0764 17.9493 10.6215 17.848C10.1665 17.752 9.77525 17.6213 9.44768 17.456C8.87746 17.1733 8.43464 16.784 8.1192 16.288C7.80983 15.7867 7.65514 15.256 7.65514 14.696C7.65514 14.3067 7.73703 13.936 7.90082 13.584C8.0646 13.232 8.31332 12.9067 8.64695 12.608C8.66515 12.5973 8.68638 12.5813 8.71065 12.56C8.73491 12.5387 8.79557 12.4853 8.89263 12.4H13.6606C13.236 12.6347 12.8538 12.8107 12.5141 12.928C12.1744 13.04 11.8529 13.1467 11.5496 13.248C11.2524 13.344 10.9521 13.4853 10.6488 13.672C10.4061 13.832 10.2302 13.9867 10.121 14.136C10.0179 14.2853 9.96633 14.48 9.96633 14.72C9.96633 14.9493 10.0118 15.1493 10.1028 15.32C10.1999 15.4907 10.3515 15.6427 10.5578 15.776C10.7944 15.9307 11.04 16.0347 11.2948 16.088C11.5496 16.1413 11.7831 16.168 11.9955 16.168C12.3776 16.168 12.7143 16.096 13.0055 15.952C13.2966 15.8027 13.5575 15.584 13.788 15.296C13.8608 15.216 13.9214 15.1253 13.97 15.024C14.0246 14.9173 14.064 14.8133 14.0883 14.712H16.3449C16.3206 14.9733 16.2478 15.248 16.1265 15.536C16.0052 15.8187 15.8535 16.08 15.6715 16.32C15.2651 16.8747 14.7343 17.2933 14.0792 17.576C13.424 17.8587 12.7264 18 11.9864 18ZM7 13.912V12.4H17V13.912H7ZM7.0091 11.592L7 10.08H17V11.592H7.0091ZM10.4486 11.592C10.6791 11.4853 10.9521 11.3733 11.2675 11.256C11.589 11.1333 11.9105 11.008 12.232 10.88C12.5535 10.752 12.8417 10.6187 13.0965 10.48C13.3512 10.336 13.5302 10.1867 13.6333 10.032C13.7304 9.91467 13.7941 9.78933 13.8244 9.656C13.8547 9.52267 13.8699 9.40267 13.8699 9.296C13.8699 9.088 13.8335 8.90933 13.7607 8.76C13.6879 8.60533 13.5817 8.464 13.4422 8.336C13.2784 8.18133 13.0783 8.05867 12.8417 7.968C12.6051 7.87733 12.3534 7.832 12.0864 7.832C11.7285 7.832 11.4222 7.904 11.1674 8.048C10.9187 8.192 10.7216 8.352 10.576 8.528C10.4729 8.65067 10.394 8.776 10.3394 8.904C10.2848 9.032 10.2454 9.16 10.2211 9.288H7.90992C7.94631 8.936 8.04034 8.59733 8.19199 8.272C8.34365 7.94667 8.52563 7.66133 8.73794 7.416C9.12011 6.96267 9.60237 6.61333 10.1847 6.368C10.7731 6.12267 11.407 6 12.0864 6C12.6445 6 13.1783 6.08267 13.6879 6.248C14.2035 6.408 14.6403 6.63467 14.9982 6.928C15.3561 7.216 15.6412 7.576 15.8535 8.008C16.0719 8.44 16.1811 8.88 16.1811 9.328C16.1811 9.632 16.1234 9.93867 16.0082 10.248C15.899 10.5573 15.7382 10.848 15.5259 11.12C15.3864 11.296 15.2317 11.4533 15.0619 11.592H10.4486Z" fill="#C2F0EE"/>
<rect x="10" y="2" width="4" height="2" fill="#2DC2BB"/>
<rect x="17.2266" y="3" width="3.21936" height="2" transform="rotate(39.3402 17.2266 3)" fill="#2DC2BB"/>
<rect width="3.21936" height="2" transform="matrix(-0.773395 0.633924 0.633924 0.773395 6.48828 2.95898)" fill="#2DC2BB"/>
</svg>
