<svg viewBox="0 0 48 48" fill="none" xmlns="http://www.w3.org/2000/svg">
<path d="M23.9998 40C26.101 40 28.1816 39.5861 30.1228 38.7821C32.064 37.978 33.8278 36.7994 35.3136 35.3137C36.7993 33.828 37.9778 32.0641 38.7819 30.1229C39.586 28.1817 39.9998 26.1012 39.9998 24C39.9998 21.8989 39.586 19.8183 38.7819 17.8771C37.9778 15.9359 36.7993 14.172 35.3136 12.6863C33.8278 11.2006 32.064 10.022 30.1228 9.21793C28.1816 8.41385 26.101 8 23.9998 8C21.8987 8 19.8181 8.41385 17.8769 9.21793C15.9357 10.022 14.1719 11.2006 12.6861 12.6863C11.2004 14.172 10.0218 15.9359 9.21777 17.8771M29 28L24 24V15M15 29.4118C17.3333 25.9294 15 21.1765 13.8333 20C13.8333 23.5741 11.7648 25.5776 10.3333 27.0588C8.903 28.5412 8 30.8706 8 32.9412C8 34.8133 8.7375 36.6087 10.0503 37.9325C11.363 39.2563 13.1435 40 15 40C16.8565 40 18.637 39.2563 19.9497 37.9325C21.2625 36.6087 22 34.8133 22 32.9412C22 31.1388 20.768 28.3059 19.6667 27.0588C17.583 30.5882 16.4105 30.5882 15 29.4118Z" stroke="inherit" stroke-width="2" stroke-linecap="round" stroke-linejoin="round"/>
</svg>
