<svg viewBox="0 0 20 20" fill="inherit" xmlns="http://www.w3.org/2000/svg">
<path fill-rule="evenodd" clip-rule="evenodd" d="M20 10C20 15.5228 15.5228 20 10 20C4.47715 20 0 15.5228 0 10C0 4.47715 4.47715 0 10 0C15.5228 0 20 4.47715 20 10ZM8.33333 8.33342H10.8333V13.3334H11.6667V14.9999H8.33333V13.3334H9.16675V9.99992H8.33333V8.33342ZM9.58333 6.66667C10.2737 6.66667 10.8333 6.10702 10.8333 5.41667C10.8333 4.72631 10.2737 4.16667 9.58333 4.16667C8.89298 4.16667 8.33333 4.72631 8.33333 5.41667C8.33333 6.10702 8.89298 6.66667 9.58333 6.66667Z" fill="inherit"/>
</svg>
