<svg viewBox="0 0 32 32" fill="none" xmlns="http://www.w3.org/2000/svg">
<path d="M10.0739 2.66675C8.10934 2.66675 6.22524 3.44717 4.83608 4.83633C3.44692 6.22549 2.6665 8.10959 2.6665 10.0742V21.926C2.6665 23.8906 3.44692 25.7747 4.83608 27.1638C6.22524 28.553 8.10934 29.3334 10.0739 29.3334H21.9258C23.8903 29.3334 25.7744 28.553 27.1636 27.1638C28.5528 25.7747 29.3332 23.8906 29.3332 21.926V10.0742C29.3332 8.10959 28.5528 6.22549 27.1636 4.83633C25.7744 3.44717 23.8903 2.66675 21.9258 2.66675H10.0739ZM24.8887 5.62971C25.7035 5.62971 26.3702 6.29638 26.3702 7.11119C26.3702 7.92601 25.7035 8.59267 24.8887 8.59267C24.0739 8.59267 23.4072 7.92601 23.4072 7.11119C23.4072 6.29638 24.0739 5.62971 24.8887 5.62971ZM15.9998 8.59267C17.9644 8.59267 19.8485 9.3731 21.2377 10.7623C22.6268 12.1514 23.4072 14.0355 23.4072 16.0001C23.4072 17.9646 22.6268 19.8488 21.2377 21.2379C19.8485 22.6271 17.9644 23.4075 15.9998 23.4075C14.0353 23.4075 12.1512 22.6271 10.762 21.2379C9.37285 19.8488 8.59243 17.9646 8.59243 16.0001C8.59243 14.0355 9.37285 12.1514 10.762 10.7623C12.1512 9.3731 14.0353 8.59267 15.9998 8.59267ZM15.9998 11.5556C15.416 11.5558 14.8379 11.671 14.2986 11.8946C13.7592 12.1182 13.2692 12.4459 12.8565 12.8589C12.4438 13.2718 12.1165 13.7621 11.8933 14.3015C11.67 14.841 11.5552 15.4192 11.5554 16.003C11.5556 16.5869 11.6708 17.165 11.8944 17.7043C12.118 18.2436 12.4456 18.7337 12.8586 19.1464C13.2716 19.5591 13.7618 19.8864 14.3013 20.1096C14.8408 20.3329 15.419 20.4477 16.0028 20.4475C17.1819 20.4471 18.3126 19.9783 19.1461 19.1443C19.9796 18.3102 20.4476 17.1792 20.4472 16.0001C20.4469 14.8209 19.9781 13.6903 19.144 12.8568C18.31 12.0233 17.179 11.5552 15.9998 11.5556Z" fill="inherit"/>
</svg>
