<svg width="66" height="30" viewBox="0 0 66 30" fill="none" xmlns="http://www.w3.org/2000/svg">
<g id="Vector">
<path d="M0 0H2.47951V5.12071H8.33689V0H10.8164V12.4031H8.33689V7.24695H2.47951V12.4031H0V0Z" fill="inherit"/>
<path d="M16.4507 12.5449C15.6961 12.5449 15.0253 12.409 14.4384 12.1373C13.8634 11.8538 13.4142 11.464 13.0908 10.9679C12.7674 10.4599 12.6057 9.88114 12.6057 9.23145V6.94574C12.6057 6.2488 12.7674 5.63455 13.0908 5.10299C13.4142 4.57143 13.8634 4.15799 14.4384 3.86268C15.0253 3.56737 15.6961 3.41971 16.4507 3.41971H17.8881C19.038 3.41971 19.9604 3.73865 20.6551 4.37652C21.3499 5.0144 21.6972 5.86489 21.6972 6.92802V8.8062H15.0493V9.23145C15.0493 9.62126 15.175 9.93429 15.4266 10.1705C15.6781 10.4068 16.0195 10.5249 16.4507 10.5249H17.8522C18.2714 10.5249 18.6068 10.4363 18.8584 10.2591C19.1219 10.0701 19.2537 9.82798 19.2537 9.53267H21.6613C21.6613 10.1233 21.4996 10.6489 21.1762 11.1096C20.8528 11.5703 20.3976 11.9247 19.8106 12.1728C19.2357 12.4208 18.5709 12.5449 17.8163 12.5449H16.4507ZM19.2896 7.06977V6.92802C19.2896 6.46733 19.1638 6.10114 18.9123 5.82946C18.6607 5.54596 18.3253 5.40421 17.9061 5.40421H16.4507C16.0195 5.40421 15.6721 5.55186 15.4086 5.84718C15.1451 6.14249 15.0133 6.5323 15.0133 7.01661V7.06977H19.2896Z" fill="inherit"/>
<path d="M26.1913 12.5449C25.257 12.5449 24.5024 12.3145 23.9274 11.8538C23.3525 11.3931 23.065 10.7848 23.065 10.0288V9.3732C23.065 8.62901 23.3644 8.03249 23.9634 7.58361C24.5623 7.12292 25.3528 6.89258 26.3351 6.89258H27.4311C27.7425 6.89258 28.0779 6.93392 28.4373 7.01661C28.7966 7.0993 29.126 7.21152 29.4255 7.35327V6.43189C29.4255 6.13658 29.3236 5.90033 29.12 5.72315C28.9284 5.53415 28.6708 5.43965 28.3474 5.43965H26.8022C26.4668 5.43965 26.1973 5.51643 25.9937 5.66999C25.7901 5.82355 25.6882 6.03027 25.6882 6.29014H23.3165C23.3165 5.42783 23.634 4.7368 24.2688 4.21705C24.9156 3.68549 25.7601 3.41971 26.8022 3.41971H28.3474C29.4015 3.41971 30.252 3.69731 30.8988 4.25249C31.5456 4.79587 31.869 5.52233 31.869 6.43189V12.4031H29.6051V11.34C29.3177 11.7062 28.9643 12.0015 28.5451 12.2259C28.1258 12.4385 27.7126 12.5449 27.3053 12.5449H26.1913ZM27.485 10.7021C27.9282 10.7021 28.3235 10.5899 28.6708 10.3654C29.0182 10.141 29.2697 9.83979 29.4255 9.46179V9.16058C29.2338 9.01883 28.9643 8.90661 28.6169 8.82392C28.2815 8.74123 27.9222 8.69989 27.5389 8.69989H26.4069C26.1195 8.69989 25.8859 8.77076 25.7062 8.91251C25.5265 9.05426 25.4367 9.24326 25.4367 9.47951V9.9402C25.4367 10.1646 25.5325 10.3477 25.7242 10.4895C25.9278 10.6312 26.1913 10.7021 26.5147 10.7021H27.485Z" fill="inherit"/>
<path d="M36.9356 12.4031C35.8695 12.4031 35.0849 12.1846 34.5818 11.7475C34.0907 11.2986 33.8452 10.6076 33.8452 9.67442V0H36.2887V9.53267C36.2887 9.81617 36.3546 10.0229 36.4864 10.1528C36.6181 10.2828 36.8278 10.3477 37.1152 10.3477H38.0855V12.4031H36.9356Z" fill="inherit"/>
<path d="M43.0786 12.4031C42.0245 12.4031 41.2519 12.1669 40.7608 11.6944C40.2697 11.2219 40.0241 10.4895 40.0241 9.49723V5.61683H38.443V3.56146H40.096V0.885936H42.4677V3.56146H44.8035V5.61683H42.4677V9.39092C42.4677 9.72167 42.5276 9.96382 42.6474 10.1174C42.7791 10.2709 42.9828 10.3477 43.2583 10.3477H44.8035V12.4031H43.0786Z" fill="inherit"/>
<path d="M46.5312 0H48.9747V4.4474C49.2383 4.14027 49.5617 3.89221 49.945 3.70321C50.3403 3.51421 50.7176 3.41971 51.0769 3.41971H52.1909C53.1492 3.41971 53.9158 3.71502 54.4907 4.30565C55.0777 4.89627 55.3711 5.6759 55.3711 6.64452V12.4031H52.9276V6.73311C52.9276 6.36693 52.8258 6.07161 52.6221 5.84718C52.4305 5.62274 52.1789 5.51052 51.8675 5.51052H50.7535C50.3343 5.51052 49.9569 5.66408 49.6216 5.97121C49.2981 6.26652 49.0825 6.65633 48.9747 7.14064V12.4031H46.5312V0Z" fill="inherit"/>
<path d="M60.8254 16C59.8551 16 59.0526 15.7283 58.4177 15.1849C57.7949 14.6534 57.4475 13.9505 57.3756 13.0764H59.7833C59.8072 13.3363 59.915 13.543 60.1067 13.6966C60.2983 13.8619 60.5379 13.9446 60.8254 13.9446H62.2987C62.67 13.9446 62.9695 13.7911 63.1971 13.4839C63.4366 13.1886 63.5564 12.7988 63.5564 12.3145V11.1628C63.2809 11.529 62.9635 11.8184 62.6041 12.031C62.2568 12.2318 61.9094 12.3322 61.562 12.3322H60.3762C59.4299 12.3322 58.6693 12.0251 58.0943 11.4109C57.5194 10.7848 57.2319 9.95792 57.2319 8.93023V3.56146H59.6755V8.96567C59.6755 9.35548 59.7713 9.67442 59.9629 9.92248C60.1666 10.1587 60.4301 10.2769 60.7535 10.2769H61.7956C62.1909 10.2769 62.5503 10.1174 62.8737 9.79845C63.1971 9.4677 63.4247 9.03654 63.5564 8.50498V3.56146H66V12.3145C66 13.0469 65.8443 13.6907 65.5328 14.2458C65.2334 14.801 64.8022 15.2322 64.2392 15.5393C63.6762 15.8464 63.0294 16 62.2987 16H60.8254Z" fill="inherit"/>
<path d="M1.72749 29.8418C1.21696 29.8418 0.801412 29.6704 0.480847 29.3277C0.160282 28.9849 0 28.5367 0 27.9831V16H5.94826C6.89809 16 7.72918 16.1977 8.44154 16.5932C9.16578 16.9887 9.72381 17.549 10.1156 18.274C10.5193 18.9991 10.7211 19.8362 10.7211 20.7853V24.661C10.7211 26.3616 10.3234 27.6535 9.52791 28.5367C8.73243 29.4068 7.56296 29.8418 6.0195 29.8418H1.72749ZM5.94826 27.4294C6.70812 27.4294 7.28395 27.1855 7.67575 26.6977C8.06756 26.21 8.26345 25.4915 8.26345 24.5424V20.904C8.26345 20.1525 8.04381 19.5527 7.60452 19.1045C7.16522 18.6431 6.58939 18.4124 5.87703 18.4124H2.45766V27.4294H5.94826Z" fill="inherit"/>
<path d="M15.8884 30C15.1404 30 14.4756 29.8484 13.8938 29.5452C13.3239 29.2288 12.8787 28.7938 12.5581 28.2401C12.2375 27.6733 12.0773 27.0273 12.0773 26.3023V23.7514C12.0773 22.9736 12.2375 22.2881 12.5581 21.6949C12.8787 21.1017 13.3239 20.6403 13.8938 20.3107C14.4756 19.9812 15.1404 19.8164 15.8884 19.8164H17.3132C18.4529 19.8164 19.3672 20.1723 20.0558 20.8842C20.7444 21.596 21.0887 22.5452 21.0887 23.7316V25.8277H14.4993V26.3023C14.4993 26.7373 14.624 27.0866 14.8733 27.3503C15.1226 27.6139 15.461 27.7458 15.8884 27.7458H17.2775C17.6931 27.7458 18.0255 27.6469 18.2749 27.4492C18.5361 27.2382 18.6667 26.968 18.6667 26.6384H21.0531C21.0531 27.2976 20.8928 27.8842 20.5722 28.3983C20.2517 28.9124 19.8005 29.3079 19.2187 29.5847C18.6488 29.8616 17.9899 30 17.2419 30H15.8884ZM18.7023 23.8898V23.7316C18.7023 23.2175 18.5776 22.8089 18.3283 22.5056C18.079 22.1893 17.7465 22.0311 17.331 22.0311H15.8884C15.461 22.0311 15.1167 22.1959 14.8555 22.5254C14.5943 22.855 14.4637 23.29 14.4637 23.8305V23.8898H18.7023Z" fill="inherit"/>
<path d="M22.7294 19.9746H24.9733V21.161C25.2345 20.7524 25.5729 20.4294 25.9885 20.1921C26.404 19.9416 26.8195 19.8164 27.2351 19.8164H28.3036C29.2535 19.8164 30.0133 20.146 30.5832 20.8051C31.165 21.4642 31.4559 22.3343 31.4559 23.4153V29.8418H29.0338V23.5141C29.0338 23.1055 28.9329 22.7759 28.7311 22.5254C28.5411 22.275 28.2918 22.1497 27.9831 22.1497H26.9145C26.499 22.1497 26.125 22.3211 25.7926 22.6638C25.472 22.9934 25.2583 23.4284 25.1514 23.9689V29.8418H22.7294V19.9746Z" fill="inherit"/>
<path d="M37.2903 29.8418C36.2455 29.8418 35.4797 29.5782 34.9929 29.0508C34.5061 28.5235 34.2628 27.7062 34.2628 26.5989V22.2684H32.6955V19.9746H34.334V16.9887H36.6848V19.9746H39V22.2684H36.6848V26.4802C36.6848 26.8493 36.7442 27.1196 36.8629 27.291C36.9935 27.4623 37.1953 27.548 37.4684 27.548H39V29.8418H37.2903Z" fill="inherit"/>
</g>
</svg>
