<svg width="150" height="22" viewBox="0 0 150 22" fill="none" xmlns="http://www.w3.org/2000/svg">
<g id="Healthy Dent">
<path d="M0 0.5H3.30094V7.22093H11.0988V0.5H14.3998V16.7791H11.0988V10.0116H3.30094V16.7791H0V0.5Z" fill="inherit"/>
<path d="M21.9007 16.9651C20.8961 16.9651 20.0031 16.7868 19.2217 16.4302C18.4562 16.0581 17.8582 15.5465 17.4277 14.8953C16.9971 14.2287 16.7818 13.469 16.7818 12.6163V9.61628C16.7818 8.70155 16.9971 7.89535 17.4277 7.19767C17.8582 6.5 18.4562 5.95736 19.2217 5.56977C20.0031 5.18217 20.8961 4.98837 21.9007 4.98837H23.8143C25.3452 4.98837 26.573 5.40698 27.4979 6.24419C28.4228 7.0814 28.8853 8.19768 28.8853 9.59302V12.0581H20.0349V12.6163C20.0349 13.1279 20.2024 13.5388 20.5373 13.8488C20.8721 14.1589 21.3266 14.314 21.9007 14.314H23.7664C24.3246 14.314 24.7711 14.1977 25.106 13.9651C25.4568 13.7171 25.6322 13.3992 25.6322 13.0116H28.8375C28.8375 13.7868 28.6222 14.4767 28.1916 15.0814C27.7611 15.686 27.1551 16.1512 26.3737 16.4767C25.6083 16.8023 24.7232 16.9651 23.7186 16.9651H21.9007ZM25.68 9.77907V9.59302C25.68 8.98837 25.5126 8.50775 25.1777 8.15116C24.8428 7.77907 24.3963 7.59302 23.8382 7.59302H21.9007C21.3266 7.59302 20.8642 7.78682 20.5133 8.17442C20.1625 8.56202 19.9871 9.07364 19.9871 9.7093V9.77907H25.68Z" fill="inherit"/>
<path d="M34.8683 16.9651C33.6244 16.9651 32.6198 16.6628 31.8544 16.0581C31.0889 15.4535 30.7062 14.655 30.7062 13.6628V12.8023C30.7062 11.8256 31.1049 11.0426 31.9022 10.4535C32.6995 9.84884 33.752 9.54651 35.0596 9.54651H36.5187C36.9333 9.54651 37.3798 9.60078 37.8582 9.7093C38.3366 9.81783 38.7752 9.96512 39.1738 10.1512V8.94186C39.1738 8.55426 39.0383 8.24419 38.7672 8.01163C38.5121 7.76357 38.1692 7.63954 37.7386 7.63954H35.6815C35.235 7.63954 34.8762 7.74031 34.6051 7.94186C34.334 8.14341 34.1985 8.41473 34.1985 8.75581H31.0411C31.0411 7.62403 31.4637 6.71705 32.3088 6.03488C33.1699 5.33721 34.2942 4.98837 35.6815 4.98837H37.7386C39.1419 4.98837 40.2741 5.35271 41.1353 6.0814C41.9964 6.79457 42.4269 7.74806 42.4269 8.94186V16.7791H39.413V15.3837C39.0303 15.8643 38.5599 16.2519 38.0018 16.5465C37.4436 16.8256 36.8935 16.9651 36.3513 16.9651H34.8683ZM36.5905 14.5465C37.1805 14.5465 37.7067 14.3992 38.1692 14.1047C38.6316 13.8101 38.9665 13.4147 39.1738 12.9186V12.5233C38.9187 12.3372 38.5599 12.1899 38.0974 12.0814C37.6509 11.9729 37.1725 11.9186 36.6622 11.9186H35.1553C34.7726 11.9186 34.4616 12.0116 34.2224 12.1977C33.9832 12.3837 33.8636 12.6318 33.8636 12.9419V13.5465C33.8636 13.8411 33.9912 14.0814 34.2463 14.2674C34.5174 14.4535 34.8683 14.5465 35.2988 14.5465H36.5905Z" fill="inherit"/>
<path d="M49.172 16.7791C47.7527 16.7791 46.7082 16.4922 46.0385 15.9186C45.3847 15.3295 45.0577 14.4225 45.0577 13.1977V0.5H48.3108V13.0116C48.3108 13.3837 48.3986 13.655 48.574 13.8256C48.7494 13.9961 49.0284 14.0814 49.4112 14.0814H50.7028V16.7791H49.172Z" fill="inherit"/>
<path d="M57.3501 16.7791C55.9468 16.7791 54.9183 16.469 54.2645 15.8488C53.6107 15.2287 53.2837 14.2674 53.2837 12.9651V7.87209H51.1788V5.17442H53.3794V1.66279H56.5368V5.17442H59.6464V7.87209H56.5368V12.8256C56.5368 13.2597 56.6166 13.5775 56.7761 13.7791C56.9515 13.9806 57.2226 14.0814 57.5893 14.0814H59.6464V16.7791H57.3501Z" fill="inherit"/>
<path d="M61.9465 0.5H65.1996V6.33721C65.5504 5.93411 65.981 5.60853 66.4912 5.36047C67.0175 5.1124 67.5198 4.98837 67.9982 4.98837H69.4812C70.757 4.98837 71.7775 5.37597 72.543 6.15116C73.3244 6.92636 73.715 7.94961 73.715 9.22093V16.7791H70.462V9.33721C70.462 8.85659 70.3264 8.46899 70.0553 8.17442C69.8002 7.87985 69.4653 7.73256 69.0507 7.73256H67.5676C67.0095 7.73256 66.5072 7.93411 66.0607 8.33721C65.6301 8.72481 65.3431 9.23643 65.1996 9.87209V16.7791H61.9465V0.5Z" fill="inherit"/>
<path d="M80.9762 21.5C79.6846 21.5 78.6161 21.1434 77.771 20.4302C76.9417 19.7326 76.4793 18.8101 76.3836 17.6628H79.5889C79.6208 18.0039 79.7643 18.2752 80.0194 18.4767C80.2746 18.6938 80.5935 18.8023 80.9762 18.8023H82.9377C83.432 18.8023 83.8307 18.6008 84.1337 18.1977C84.4526 17.8101 84.6121 17.2985 84.6121 16.6628V15.1512C84.2453 15.6318 83.8227 16.0116 83.3443 16.2907C82.8818 16.5543 82.4194 16.686 81.9569 16.686H80.3782C79.1185 16.686 78.1059 16.2829 77.3404 15.4767C76.575 14.655 76.1923 13.5698 76.1923 12.2209V5.17442H79.4454V12.2674C79.4454 12.7791 79.5729 13.1977 79.8281 13.5233C80.0992 13.8333 80.45 13.9884 80.8805 13.9884H82.2679C82.7941 13.9884 83.2725 13.7791 83.7031 13.3605C84.1337 12.9264 84.4366 12.3605 84.6121 11.6628V5.17442H87.8652V16.6628C87.8652 17.624 87.6578 18.469 87.2432 19.1977C86.8446 19.9264 86.2705 20.4922 85.521 20.8953C84.7715 21.2985 83.9104 21.5 82.9377 21.5H80.9762Z" fill="inherit"/>
<path d="M99.9385 16.7791C99.2528 16.7791 98.6947 16.5775 98.2641 16.1744C97.8336 15.7713 97.6183 15.2442 97.6183 14.593V0.5H105.608C106.883 0.5 108 0.732558 108.956 1.19768C109.929 1.66279 110.679 2.32171 111.205 3.17442C111.747 4.02713 112.018 5.01163 112.018 6.12791V10.686C112.018 12.686 111.484 14.2054 110.415 15.2442C109.347 16.2674 107.776 16.7791 105.703 16.7791H99.9385ZM105.608 13.9419C106.628 13.9419 107.402 13.655 107.928 13.0814C108.454 12.5078 108.717 11.6628 108.717 10.5465V6.26744C108.717 5.38372 108.422 4.6783 107.832 4.15116C107.242 3.60853 106.469 3.33721 105.512 3.33721H100.919V13.9419H105.608Z" fill="inherit"/>
<path d="M118.958 16.9651C117.954 16.9651 117.061 16.7868 116.279 16.4302C115.514 16.0581 114.916 15.5465 114.485 14.8953C114.055 14.2287 113.84 13.469 113.84 12.6163V9.61628C113.84 8.70155 114.055 7.89535 114.485 7.19767C114.916 6.5 115.514 5.95736 116.279 5.56977C117.061 5.18217 117.954 4.98837 118.958 4.98837H120.872C122.403 4.98837 123.631 5.40698 124.556 6.24419C125.481 7.0814 125.943 8.19768 125.943 9.59302V12.0581H117.093V12.6163C117.093 13.1279 117.26 13.5388 117.595 13.8488C117.93 14.1589 118.384 14.314 118.958 14.314H120.824C121.382 14.314 121.829 14.1977 122.164 13.9651C122.514 13.7171 122.69 13.3992 122.69 13.0116H125.895C125.895 13.7868 125.68 14.4767 125.249 15.0814C124.819 15.686 124.213 16.1512 123.431 16.4767C122.666 16.8023 121.781 16.9651 120.776 16.9651H118.958ZM122.738 9.77907V9.59302C122.738 8.98837 122.57 8.50775 122.235 8.15116C121.901 7.77907 121.454 7.59302 120.896 7.59302H118.958C118.384 7.59302 117.922 7.78682 117.571 8.17442C117.22 8.56202 117.045 9.07364 117.045 9.7093V9.77907H122.738Z" fill="inherit"/>
<path d="M128.147 5.17442H131.16V6.56977C131.511 6.08915 131.966 5.7093 132.524 5.43023C133.082 5.13566 133.64 4.98837 134.198 4.98837H135.633C136.909 4.98837 137.93 5.37597 138.695 6.15116C139.477 6.92636 139.867 7.94961 139.867 9.22093V16.7791H136.614V9.33721C136.614 8.85659 136.479 8.46899 136.208 8.17442C135.952 7.87985 135.618 7.73256 135.203 7.73256H133.768C133.21 7.73256 132.707 7.93411 132.261 8.33721C131.83 8.72481 131.543 9.23643 131.4 9.87209V16.7791H128.147V5.17442Z" fill="inherit"/>
<path d="M147.704 16.7791C146.3 16.7791 145.272 16.469 144.618 15.8488C143.964 15.2287 143.637 14.2674 143.637 12.9651V7.87209H141.532V5.17442H143.733V1.66279H146.89V5.17442H150V7.87209H146.89V12.8256C146.89 13.2597 146.97 13.5775 147.13 13.7791C147.305 13.9806 147.576 14.0814 147.943 14.0814H150V16.7791H147.704Z" fill="inherit"/>
</g>
</svg>
