<svg viewBox="0 0 24 24">
<path fill-rule="evenodd" clip-rule="evenodd" d="M19.9662 9.2928C20.0608 9.55536 20.1832 9.80624 20.3311 10.0408C20.7213 10.6175 20.9525 11.2937 21 11.9965C20.9474 12.7012 20.7101 13.3775 20.3137 13.9522C20.167 14.1811 20.0446 14.4259 19.9488 14.6823C19.8775 14.9623 19.8338 15.2492 19.8185 15.5384C19.8106 16.227 19.6213 16.9001 19.2712 17.4851C18.8434 18.0186 18.2809 18.418 17.6467 18.6387C17.3907 18.7401 17.146 18.8701 16.917 19.0263C16.7067 19.2036 16.5146 19.4029 16.3436 19.6211C15.9417 20.1803 15.4013 20.6163 14.7799 20.8828C14.1405 21.0438 13.4711 21.022 12.8427 20.8197C12.2884 20.6846 11.7116 20.6846 11.1573 20.8197C10.7715 20.9266 10.375 20.9871 9.97587 21C9.71967 21.0009 9.46483 20.9614 9.22008 20.8828C8.5955 20.6177 8.05203 20.1816 7.64768 19.6211C7.47672 19.4029 7.28459 19.2036 7.07432 19.0263C6.84531 18.8701 6.60064 18.7401 6.34459 18.6387C5.71042 18.418 5.14794 18.0186 4.72008 17.4851C4.36692 16.9011 4.17464 16.2278 4.16409 15.5384C4.14881 15.2492 4.10515 14.9623 4.03378 14.6823C3.93801 14.4259 3.81567 14.1811 3.66892 13.9522C3.27872 13.3755 3.04746 12.6994 3 11.9965C3.04434 11.2875 3.27574 10.6047 3.66892 10.0228C3.81567 9.79391 3.93801 9.54913 4.03378 9.2928C4.10987 9.01923 4.15934 8.73844 4.18147 8.45464C4.18679 7.76697 4.37303 7.09386 4.72008 6.50795C5.15031 5.97314 5.71595 5.5736 6.35328 5.35436C6.60932 5.25295 6.854 5.12301 7.08301 4.96682C7.29328 4.78946 7.48541 4.59014 7.65637 4.372C8.05834 3.81277 8.59867 3.37679 9.22008 3.11026C9.86772 2.94424 10.5469 2.96606 11.1834 3.17334C11.7376 3.30847 12.3145 3.30847 12.8687 3.17334C13.4863 2.97762 14.1429 2.95584 14.7712 3.11026C15.3958 3.37539 15.9393 3.81148 16.3436 4.372C16.5119 4.58969 16.7011 4.78899 16.9083 4.96682C17.1373 5.12301 17.382 5.25295 17.638 5.35436C18.2722 5.57509 18.8347 5.97452 19.2625 6.50795C19.6157 7.09202 19.808 7.76526 19.8185 8.45464C19.8407 8.73844 19.8901 9.01923 19.9662 9.2928ZM10.7471 10.3335C10.912 10.0869 10.9999 9.79686 10.9999 9.50019C10.9999 9.10236 10.8419 8.72083 10.5606 8.43953C10.2793 8.15822 9.89776 8.00019 9.49994 8.00019C9.20327 8.00019 8.91326 8.08816 8.66658 8.25298C8.41991 8.4178 8.22765 8.65207 8.11412 8.92616C8.00059 9.20025 7.97088 9.50185 8.02876 9.79282C8.08664 10.0838 8.2295 10.3511 8.43928 10.5608C8.64906 10.7706 8.91633 10.9135 9.2073 10.9714C9.49827 11.0292 9.79987 10.9995 10.074 10.886C10.3481 10.7725 10.5823 10.5802 10.7471 10.3335ZM13.6666 13.253C13.9133 13.0882 14.2033 13.0002 14.4999 13.0002C14.8978 13.0002 15.2793 13.1582 15.5606 13.4395C15.8419 13.7208 15.9999 14.1024 15.9999 14.5002C15.9999 14.7969 15.912 15.0869 15.7471 15.3335C15.5823 15.5802 15.3481 15.7725 15.074 15.886C14.7999 15.9995 14.4983 16.0292 14.2073 15.9714C13.9163 15.9135 13.6491 15.7706 13.4393 15.5608C13.2295 15.3511 13.0866 15.0838 13.0288 14.7928C12.9709 14.5019 13.0006 14.2002 13.1141 13.9262C13.2277 13.6521 13.4199 13.4178 13.6666 13.253ZM15.7099 9.71019L9.70994 15.7102C9.61698 15.8039 9.50637 15.8783 9.38452 15.9291C9.26266 15.9798 9.13195 16.006 8.99994 16.006C8.86793 16.006 8.73722 15.9798 8.61536 15.9291C8.4935 15.8783 8.3829 15.8039 8.28994 15.7102C8.19621 15.6172 8.12182 15.5066 8.07105 15.3848C8.02028 15.2629 7.99414 15.1322 7.99414 15.0002C7.99414 14.8682 8.02028 14.7375 8.07105 14.6156C8.12182 14.4937 8.19621 14.3831 8.28994 14.2902L14.2899 8.29019C14.4782 8.10188 14.7336 7.99609 14.9999 7.99609C15.2662 7.99609 15.5216 8.10188 15.7099 8.29019C15.8982 8.47849 16.004 8.73388 16.004 9.00019C16.004 9.26649 15.8982 9.52188 15.7099 9.71019Z" fill="inherit"/>
</svg>
