<svg data-name="reviews-icon" viewBox="0 0 20 20" fill="inherit" xmlns="http://www.w3.org/2000/svg">
<path d="M10.0007 6.62147C10.7017 6.62147 11.2699 6.05319 11.2699 5.35221C11.2699 4.65123 10.7017 4.08295 10.0007 4.08295C9.29971 4.08295 8.73143 4.65123 8.73143 5.35221C8.73143 6.05319 9.29971 6.62147 10.0007 6.62147Z" fill="inherit"/>
<path d="M16.6678 0H3.33359C1.48039 0.0146494 -0.0110329 1.52697 6.15026e-05 3.38021V13.5225C-0.0110329 15.3758 1.48027 16.8884 3.33359 16.9035H5.76956L8.89308 19.5704C9.51179 20.1358 10.4572 20.1441 11.0857 19.5895L14.2901 16.9027H16.6677C18.5211 16.8876 20.0124 15.375 20.0013 13.5217V3.38021C20.0124 1.52697 18.521 0.0146494 16.6678 0ZM10.0007 2.53516C13.8467 2.63684 13.8459 8.3497 10.0007 8.45221C6.15463 8.34966 6.15545 2.63931 10.0007 2.53516ZM13.5417 14.3409C13.0958 14.4547 12.642 14.1854 12.5282 13.7394C12.5277 13.7374 12.5272 13.7354 12.5267 13.7334C12.1001 12.3381 10.6232 11.5528 9.2279 11.9793C8.38801 12.2361 7.73062 12.8935 7.47385 13.7334C7.3574 14.1789 6.90182 14.4457 6.45629 14.3292C6.01075 14.2128 5.74398 13.7572 5.86043 13.3117C6.50484 11.0248 8.88109 9.69338 11.1679 10.3378C12.6092 10.744 13.7356 11.8704 14.1418 13.3117C14.2578 13.7612 13.9901 14.2203 13.5417 14.3409Z" fill="inherit"/>
</svg>
