<svg viewBox="0 0 32 32" fill="none" xmlns="http://www.w3.org/2000/svg">
<path fill-rule="evenodd" clip-rule="evenodd" d="M29.3332 16.0001C29.3332 23.3639 23.3636 29.3334 15.9998 29.3334C8.63604 29.3334 2.6665 23.3639 2.6665 16.0001C2.6665 8.63629 8.63604 2.66675 15.9998 2.66675C23.3636 2.66675 29.3332 8.63629 29.3332 16.0001ZM16.4778 12.51C15.1809 13.0494 12.589 14.1659 8.70208 15.8593C8.0709 16.1103 7.74026 16.3559 7.71016 16.596C7.65929 17.0017 8.16743 17.1615 8.85939 17.3791C8.95351 17.4087 9.05104 17.4394 9.15101 17.4719C9.83179 17.6932 10.7476 17.9521 11.2236 17.9623C11.6555 17.9717 12.1374 17.7936 12.6696 17.4282C16.3013 14.9767 18.176 13.7376 18.2937 13.7109C18.3767 13.6921 18.4918 13.6684 18.5697 13.7377C18.6477 13.807 18.64 13.9382 18.6318 13.9734C18.5814 14.188 16.5868 16.0424 15.5545 17.0021C15.2328 17.3012 15.0045 17.5134 14.9578 17.5619C14.8533 17.6705 14.7468 17.7732 14.6444 17.8719C14.0119 18.4816 13.5377 18.9388 14.6707 19.6854C15.2151 20.0442 15.6508 20.3409 16.0854 20.6369C16.5601 20.9602 17.0336 21.2826 17.6462 21.6842C17.8023 21.7865 17.9513 21.8927 18.0965 21.9962C18.6489 22.39 19.1452 22.7439 19.7584 22.6875C20.1147 22.6547 20.4827 22.3196 20.6696 21.3205C21.1113 18.9591 21.9796 13.8428 22.1802 11.7345C22.1978 11.5498 22.1757 11.3134 22.1579 11.2096C22.1402 11.1058 22.103 10.958 21.9682 10.8485C21.8084 10.7189 21.5618 10.6916 21.4515 10.6935C20.95 10.7023 20.1806 10.9699 16.4778 12.51Z" fill="inherit"/>
</svg>
