<svg viewBox="0 0 22 22" fill="none" xmlns="http://www.w3.org/2000/svg">
<path d="M17.2829 3.62121C16.8254 3.20302 14.9815 1.86591 10.8749 1.84666C10.8749 1.84666 6.02962 1.55502 3.66762 3.71751C2.35295 5.02985 1.88992 6.95023 1.84306 9.33281C1.79345 11.7154 1.73006 16.1752 6.04064 17.3857H6.0434L6.04064 19.2318C6.04064 19.2318 6.01308 19.9802 6.50643 20.1315C7.10175 20.3158 7.45178 19.749 8.02229 19.1355C8.33374 18.7999 8.76645 18.3046 9.09167 17.9277C12.038 18.1753 14.3063 17.6086 14.5626 17.526C15.1579 17.3334 18.5259 16.9015 19.0716 12.4417C19.6366 7.84438 18.7987 4.93356 17.2829 3.62121ZM17.7817 12.1116C17.3187 15.8368 14.5874 16.0734 14.0858 16.2329C13.8708 16.3017 11.8809 16.797 9.37831 16.6319C9.37831 16.6319 7.51241 18.8769 6.93087 19.4629C6.83992 19.5537 6.73243 19.5922 6.66077 19.573C6.56155 19.5482 6.53399 19.4299 6.53399 19.2566C6.53674 19.009 6.55052 16.1889 6.55052 16.1889C6.54777 16.1889 6.54777 16.1889 6.55052 16.1889C2.90693 15.1792 3.11915 11.3797 3.16049 9.39059C3.20183 7.40143 3.57667 5.77269 4.68738 4.67769C6.68557 2.87287 10.8005 3.14249 10.8005 3.14249C14.2759 3.159 15.9406 4.20173 16.3265 4.55114C17.6081 5.64888 18.2613 8.27083 17.7817 12.1116Z" fill="inherit"/>
<path fill-rule="evenodd" clip-rule="evenodd" d="M10.9433 7.78256C10.9501 7.65468 11.0595 7.55651 11.1876 7.56331C11.6674 7.58875 12.0667 7.73327 12.3509 8.0263C12.6342 8.31833 12.7726 8.72641 12.7964 9.21707C12.8026 9.34498 12.7037 9.45369 12.5756 9.45987C12.4475 9.46605 12.3386 9.36737 12.3324 9.23946C12.312 8.81945 12.1969 8.53422 12.0172 8.3489C11.8384 8.16459 11.5652 8.04774 11.163 8.02641C11.0349 8.01962 10.9365 7.91044 10.9433 7.78256Z" fill="inherit"/>
<path fill-rule="evenodd" clip-rule="evenodd" d="M10.5908 6.53487C10.5999 6.40713 10.711 6.31093 10.839 6.32C11.8168 6.38931 12.6019 6.72458 13.1737 7.34643C13.7422 7.96463 14.0105 8.73171 13.99 9.63246C13.9871 9.76049 13.8808 9.86192 13.7525 9.85901C13.6243 9.8561 13.5226 9.74996 13.5256 9.62193C13.5436 8.82791 13.3104 8.18084 12.8315 7.66003C12.3559 7.14286 11.6914 6.84534 10.8061 6.78259C10.6781 6.77352 10.5817 6.66261 10.5908 6.53487Z" fill="inherit"/>
<path fill-rule="evenodd" clip-rule="evenodd" d="M10.1823 5.34751C10.1831 5.21945 10.2878 5.11631 10.4161 5.11712C11.7646 5.12574 12.9066 5.57574 13.8207 6.46502C14.7421 7.36436 15.1996 8.5842 15.211 10.1042C15.212 10.2322 15.1088 10.3368 14.9805 10.3378C14.8522 10.3387 14.7474 10.2357 14.7465 10.1076C14.7358 8.68387 14.3112 7.59244 13.4963 6.79701C12.6741 5.99711 11.6498 5.58877 10.4131 5.58087C10.2848 5.58005 10.1815 5.47557 10.1823 5.34751Z" fill="inherit"/>
<path d="M11.2222 12.3344C11.2222 12.3344 11.5501 12.3619 11.7238 12.1446L12.0655 11.7154C12.2309 11.5008 12.6305 11.366 13.0219 11.5833C13.2396 11.7071 13.631 11.9465 13.8735 12.1253C14.1326 12.3152 14.6646 12.7581 14.6646 12.7581C14.9181 12.97 14.976 13.2836 14.8051 13.6138C14.8051 13.6165 14.8024 13.6193 14.8024 13.6193C14.626 13.9302 14.3889 14.2245 14.0885 14.4969C14.0858 14.4997 14.0858 14.4997 14.083 14.5024C13.8377 14.706 13.5952 14.8243 13.3582 14.8518C13.3306 14.8573 13.2948 14.8601 13.2534 14.8573C13.1487 14.8573 13.0467 14.8436 12.9447 14.8105L12.9365 14.7995C12.5699 14.6978 11.9608 14.4391 10.9438 13.8806C10.2823 13.5175 9.73385 13.146 9.27082 12.7774C9.02552 12.5848 8.77472 12.3647 8.5184 12.1116C8.51013 12.1033 8.50186 12.0951 8.49359 12.0868C8.48532 12.0786 8.47705 12.0703 8.46878 12.0621C8.46052 12.0538 8.45225 12.0455 8.44398 12.0373C8.43571 12.029 8.42744 12.0208 8.41918 12.0125C8.16561 11.7567 7.94512 11.5063 7.75219 11.2614C7.38287 10.7992 7.0108 10.249 6.64699 9.59143C6.08749 8.57622 5.82842 7.96819 5.72644 7.60227L5.71542 7.59402C5.68234 7.49222 5.66581 7.39043 5.66856 7.28588C5.66581 7.24461 5.66856 7.20884 5.67408 7.18133C5.70164 6.94472 5.82015 6.70261 6.0241 6.45775C6.02686 6.455 6.02686 6.455 6.02962 6.45225C6.30247 6.15236 6.59462 5.91576 6.90882 5.73968C6.91158 5.73968 6.91433 5.73692 6.91433 5.73692C7.24507 5.56635 7.55926 5.62412 7.77149 5.87724C7.77424 5.87999 8.21522 6.40823 8.40539 6.66685C8.58454 6.91171 8.82708 7.29964 8.94835 7.51698C9.16608 7.90766 9.03103 8.30659 8.81606 8.47167L8.3861 8.81282C8.16837 8.9889 8.19593 9.31355 8.19593 9.31355C8.19593 9.31355 8.83535 11.7264 11.2222 12.3344Z" fill="inherit"/>
</svg>
