<svg viewBox="0 0 24 24" fill="none" xmlns="http://www.w3.org/2000/svg">
<path d="M21.8008 8.2366C21.8008 8.2366 21.6055 6.76618 21.0039 6.12052C20.2422 5.27076 19.3906 5.26659 19 5.21661C16.2031 5 12.0039 5 12.0039 5H11.9961C11.9961 5 7.79688 5 5 5.21661C4.60938 5.26659 3.75781 5.27076 2.99609 6.12052C2.39453 6.76618 2.20312 8.2366 2.20312 8.2366C2.20312 8.2366 2 9.96529 2 11.6898V13.306C2 15.0305 2.19922 16.7592 2.19922 16.7592C2.19922 16.7592 2.39453 18.2297 2.99219 18.8753C3.75391 19.7251 4.75391 19.6959 5.19922 19.7876C6.80078 19.95 12 20 12 20C12 20 16.2031 19.9917 19 19.7792C19.3906 19.7292 20.2422 19.7251 21.0039 18.8753C21.6055 18.2297 21.8008 16.7592 21.8008 16.7592C21.8008 16.7592 22 15.0347 22 13.306V11.6898C22 9.96529 21.8008 8.2366 21.8008 8.2366ZM9.93359 15.268V9.27381L15.3359 12.2813L9.93359 15.268Z" fill="inherit"/>
</svg>
