<svg viewBox="0 0 24 24" fill="none" xmlns="http://www.w3.org/2000/svg">
<g id="Vector">
<path fill-rule="evenodd" clip-rule="evenodd" d="M10.7716 0C18.07 0 24 5.95418 24 13.2824C24 17.3718 22.1754 21.0032 19.2756 23.4568L17.1577 20.905C19.3082 19.073 20.7092 16.3576 20.7092 13.2824C20.7092 7.78623 16.278 3.33696 10.8042 3.33696C7.74148 3.33696 5.03714 4.711 3.21254 6.90292L0.671149 4.77643C3.08223 1.83206 6.73144 0 10.7716 0Z" fill="#65A29E"/>
<path fill-rule="evenodd" clip-rule="evenodd" d="M10.7717 4.97284C15.3332 4.97284 19.015 8.66965 19.015 13.2498C19.015 16.6849 16.9297 19.6292 13.9973 20.8724L13.3783 23.6859C12.2705 23.9477 11.1301 24.0458 9.9897 23.9804L8.8819 21.2977C8.23025 21.1342 7.61118 20.9051 6.99211 20.6107L4.41815 21.952C3.50585 21.265 2.69128 20.4799 2.03963 19.5311L3.37549 16.9793C3.08226 16.3905 2.85419 15.7689 2.69128 15.0818L0.0195527 13.9695C-0.0456117 12.8245 0.0521025 11.6794 0.31276 10.5671L3.11486 9.94555C4.45073 7.06661 7.38313 4.97284 10.7717 4.97284ZM10.7717 8.30979C8.03477 8.30979 5.81916 10.5344 5.81916 13.2825C5.81916 16.0306 8.03477 18.2552 10.7717 18.2552C13.5086 18.2552 15.7242 16.0306 15.7242 13.2825C15.7242 10.5344 13.5086 8.30979 10.7717 8.30979Z" fill="#65A29E"/>
<path fill-rule="evenodd" clip-rule="evenodd" d="M10.7716 16.5867C12.5963 16.5867 14.0624 15.0818 14.0624 13.2825C14.0624 11.4504 12.5637 9.9782 10.7716 9.9782C8.97963 9.9782 7.48081 11.4831 7.48081 13.2825C7.48081 15.0818 8.97963 16.5867 10.7716 16.5867Z" fill="#65A29E"/>
</g>
</svg>
