<svg viewBox="0 0 82 24" fill="none" xmlns="http://www.w3.org/2000/svg">
<g id="Vector">
<path fill-rule="evenodd" clip-rule="evenodd" d="M46.9152 7.43365C46.9152 8.32569 47.2666 9.09029 47.8816 9.68498C48.4966 10.2797 49.2873 10.6195 50.2098 10.6195H51.308V8.4956H50.2098C49.9023 8.4956 49.6387 8.36816 49.4191 8.19825C49.1994 8.02834 49.1115 7.731 49.1115 7.43365V3.82302H51.308V1.69912H49.1115V0H46.9152V1.69912H45.817V3.82302H46.9152V7.43365Z" fill="#65A29E"/>
<path fill-rule="evenodd" clip-rule="evenodd" d="M77.3572 7.43365C77.3572 8.32569 77.7086 9.09029 78.3236 9.68498C78.9386 10.2797 79.7293 10.6195 80.6518 10.6195H81.75V8.4956H80.6518C80.3443 8.4956 80.0807 8.36816 79.8611 8.19825C79.6414 7.98586 79.5536 7.731 79.5536 7.43365V0H77.3572V7.43365Z" fill="#65A29E"/>
<path d="M2.1964 1.69916H0V10.6195H2.1964V1.69916Z" fill="#65A29E"/>
<path fill-rule="evenodd" clip-rule="evenodd" d="M12.8269 5.73457V10.6195H10.6305V5.73457C10.6305 5.22484 10.4109 4.7151 10.0594 4.37527C9.70801 4.03545 9.22483 3.82306 8.65376 3.82306C8.12663 3.82306 7.59951 4.03545 7.24809 4.37527C6.89666 4.7151 6.677 5.18237 6.677 5.69211V10.6195H4.4806V1.69916H6.677V2.16644C7.24807 1.86909 7.95091 1.69916 8.65376 1.69916C9.79589 1.69916 10.8501 2.16641 11.5969 2.88854C12.3876 3.61067 12.8269 4.63015 12.8269 5.73457Z" fill="#65A29E"/>
<path d="M63.7395 1.69916H61.5431V10.6195H63.7395V1.69916Z" fill="#65A29E"/>
<path fill-rule="evenodd" clip-rule="evenodd" d="M53.6362 1.69916H55.8326V2.37883C56.5354 1.95405 57.37 1.69916 58.2486 1.69916H59.3468V3.82306H58.2486C57.5897 3.82306 56.9747 4.07795 56.5354 4.50273C56.0961 4.92751 55.8326 5.47972 55.8326 6.11689V10.6195H53.6362V1.69916Z" fill="#65A29E"/>
<path fill-rule="evenodd" clip-rule="evenodd" d="M21.876 0H24.0724V10.6195H21.876V9.93987C21.1732 10.3646 20.3385 10.6195 19.46 10.6195C18.1861 10.6195 17.0439 10.1098 16.2093 9.3027C15.3747 8.49561 14.8475 7.39118 14.8475 6.15931C14.8475 4.92745 15.3747 3.82304 16.2093 3.01596C17.0439 2.20887 18.1861 1.69912 19.46 1.69912C20.3385 1.69912 21.1732 1.954 21.876 2.37878V0ZM21.876 6.20181V6.15931C21.876 5.52214 21.6125 4.96993 21.1732 4.54515C20.7339 4.12037 20.1189 3.86552 19.46 3.86552C18.8011 3.86552 18.1861 4.12037 17.7468 4.54515C17.3075 4.96993 17.0439 5.56464 17.0439 6.20181C17.0439 6.83898 17.3075 7.43365 17.7468 7.85843C18.1861 8.28321 18.8011 8.5381 19.46 8.5381C20.1189 8.5381 20.7339 8.28321 21.1732 7.85843C21.6125 7.39118 21.876 6.83898 21.876 6.20181Z" fill="#65A29E"/>
<path fill-rule="evenodd" clip-rule="evenodd" d="M72.9645 1.69916H75.1609V10.6195H72.9645V9.93991C72.2616 10.3647 71.427 10.6195 70.5484 10.6195C69.2745 10.6195 68.1324 10.1098 67.2977 9.30274C66.4631 8.49566 65.936 7.39122 65.936 6.15935C65.936 4.92749 66.4631 3.82308 67.2977 3.016C68.1324 2.20891 69.2745 1.69916 70.5484 1.69916C71.427 1.69916 72.2616 1.95405 72.9645 2.37883V1.69916ZM72.9645 6.20185V6.15935C72.9645 5.52218 72.7009 4.96997 72.2616 4.54519C71.8223 4.12041 71.2073 3.86556 70.5484 3.86556C69.8895 3.86556 69.2745 4.12041 68.8352 4.54519C68.3959 4.96997 68.1324 5.56468 68.1324 6.20185C68.1324 6.83902 68.3959 7.4337 68.8352 7.85848C69.2745 8.28326 69.8895 8.53814 70.5484 8.53814C71.2073 8.53814 71.8223 8.28326 72.2616 7.85848C72.7009 7.39122 72.9645 6.83902 72.9645 6.20185Z" fill="#65A29E"/>
<path fill-rule="evenodd" clip-rule="evenodd" d="M28.4652 6.58414C28.4652 7.09387 28.6848 7.60361 29.0362 7.94344C29.3877 8.28326 29.8709 8.49565 30.4419 8.49565C30.9691 8.49565 31.4962 8.28326 31.8477 7.94344C32.1991 7.60361 32.4187 7.13635 32.4187 6.58414V1.69916H34.6151V6.58414C34.6151 7.68856 34.1319 8.70804 33.3851 9.43017C32.6384 10.1523 31.584 10.6195 30.4419 10.6195C29.2998 10.6195 28.2455 10.1523 27.4988 9.43017C26.752 8.70804 26.2688 7.68856 26.2688 6.58414V1.69916H28.4652V6.58414Z" fill="#65A29E"/>
<path fill-rule="evenodd" clip-rule="evenodd" d="M41.6436 5.0974H39.579C39.4033 5.0974 39.2276 5.01246 39.0958 4.92751C38.9641 4.80007 38.9201 4.63015 38.9201 4.46023C38.9201 4.29032 39.008 4.12042 39.0958 3.99299C39.2276 3.86555 39.4033 3.82306 39.579 3.82306H43.3129V1.69916H39.579C38.7883 1.69916 38.0855 1.99652 37.5584 2.50625C37.0312 3.01599 36.7237 3.73811 36.7237 4.46023C36.7237 5.22484 37.0312 5.9045 37.5584 6.41424C38.0855 6.92397 38.8323 7.2213 39.579 7.2213H41.6436C41.8194 7.2213 41.995 7.30627 42.1268 7.39123C42.2586 7.51866 42.3026 7.68856 42.3026 7.85848C42.3026 8.02839 42.2147 8.19831 42.1268 8.32575C41.995 8.45318 41.8194 8.49565 41.6436 8.49565H37.2948V10.6195H41.6436C42.4343 10.6195 43.1372 10.3222 43.6643 9.81248C44.1914 9.30274 44.4989 8.5806 44.4989 7.85848C44.4989 7.13635 44.1914 6.41423 43.6643 5.9045C43.1372 5.39476 42.4343 5.0974 41.6436 5.0974Z" fill="#65A29E"/>
<path d="M38.437 15.0796H36.2406V24H38.437V15.0796Z" fill="#65A29E"/>
<path fill-rule="evenodd" clip-rule="evenodd" d="M31.3647 13.3804H33.5611V24H31.3647V23.3203C30.6618 23.7451 29.8272 24 28.9487 24C27.6747 24 26.5326 23.4902 25.698 22.6831C24.8633 21.8761 24.3362 20.7716 24.3362 19.5398C24.3362 18.3079 24.8633 17.2035 25.698 16.3964C26.5326 15.5893 27.6747 15.0796 28.9487 15.0796C29.8272 15.0796 30.6618 15.3345 31.3647 15.7592V13.3804ZM31.3647 19.5823V19.5398C31.3647 18.9026 31.1011 18.3504 30.6619 17.9256C30.2226 17.5008 29.6076 17.246 28.9487 17.246C28.2897 17.246 27.6747 17.5008 27.2354 17.9256C26.7962 18.3504 26.5326 18.9451 26.5326 19.5823C26.5326 20.2194 26.7962 20.8141 27.2354 21.2389C27.6747 21.6637 28.2897 21.9185 28.9487 21.9185C29.6076 21.9185 30.2226 21.6637 30.6619 21.2389C31.1011 20.7716 31.3647 20.2194 31.3647 19.5823Z" fill="#65A29E"/>
<path fill-rule="evenodd" clip-rule="evenodd" d="M47.4862 15.0796H49.6827V24H47.4862V23.3204C46.7834 23.7451 45.9488 24 45.0702 24C43.7963 24 42.6542 23.4903 41.8195 22.6832C40.9849 21.8761 40.4578 20.7717 40.4578 19.5398C40.4578 18.3079 40.9849 17.2035 41.8195 16.3964C42.6542 15.5894 43.7963 15.0796 45.0702 15.0796C45.9488 15.0796 46.7834 15.3345 47.4862 15.7593V15.0796ZM47.4862 19.5823V19.5398C47.4862 18.9026 47.2227 18.3504 46.7834 17.9256C46.3441 17.5009 45.7291 17.246 45.0702 17.246C44.4113 17.246 43.7963 17.5009 43.357 17.9256C42.9177 18.3504 42.6542 18.9451 42.6542 19.5823C42.6542 20.2195 42.9177 20.8141 43.357 21.2389C43.7963 21.6637 44.4113 21.9186 45.0702 21.9186C45.7291 21.9186 46.3441 21.6637 46.7834 21.2389C47.2227 20.7717 47.4862 20.2195 47.4862 19.5823Z" fill="#65A29E"/>
<path fill-rule="evenodd" clip-rule="evenodd" d="M0 15.0796H2.1964V15.4194C2.67961 15.207 3.20674 15.0796 3.73388 15.0796C4.74422 15.0796 5.71064 15.5044 6.36956 16.1416C7.02848 15.5044 7.99489 15.0796 9.00524 15.0796C10.0156 15.0796 10.982 15.5044 11.6409 16.1416C12.2998 16.7787 12.7391 17.7132 12.7391 18.6902V24H10.5427V18.6902C10.5427 18.2655 10.367 17.9256 10.1034 17.6283C9.83987 17.3734 9.44452 17.2035 9.00524 17.2035C8.56596 17.2035 8.21453 17.3734 7.90704 17.6283C7.64347 17.8832 7.46776 18.2655 7.46776 18.6902V24H5.27136V18.6902C5.27136 18.2655 5.09565 17.9256 4.83208 17.6283C4.56851 17.3734 4.17316 17.2035 3.73388 17.2035C3.2946 17.2035 2.94318 17.3734 2.63568 17.6283C2.37211 17.8832 2.1964 18.2655 2.1964 18.6478V24H0V15.0796Z" fill="#65A29E"/>
<path fill-rule="evenodd" clip-rule="evenodd" d="M15.1113 20.7292H22.1398V18.8177H15.1113V20.7292ZM15.1113 24H22.1398V22.0885H15.1113V24ZM15.1113 17.5009H22.1398V15.5894H15.1113V17.5009Z" fill="#65A29E"/>
</g>
</svg>
