<svg viewBox="0 0 30 24" fill="none" xmlns="http://www.w3.org/2000/svg">
<g id="&#209;&#136;&#208;&#178;&#208;&#181;&#209;&#134;&#208;&#176;&#209;&#128;&#209;&#150;&#209;&#143;">
<g clip-path="url(#clip0_8935_65572)">
<rect width="30" height="24" rx="5" fill="white"/>
<rect id="Mask Copy" width="30" height="24" fill="#FF0000"/>
<path id="Rectangle 78" fill-rule="evenodd" clip-rule="evenodd" d="M12.6667 14.3333H8.4537C8.20313 14.3333 8 14.1302 8 13.8796V10.1204C8 9.8698 8.20313 9.66667 8.4537 9.66667H12.6667V5.4537C12.6667 5.20313 12.8698 5 13.1204 5H16.8796C17.1302 5 17.3333 5.20313 17.3333 5.4537V9.66667H21.5463C21.7969 9.66667 22 9.8698 22 10.1204V13.8796C22 14.1302 21.7969 14.3333 21.5463 14.3333H17.3333V18.5463C17.3333 18.7969 17.1302 19 16.8796 19H13.1204C12.8698 19 12.6667 18.7969 12.6667 18.5463V14.3333Z" fill="white"/>
</g>
<rect x="0.5" y="0.5" width="29" height="23" rx="4.5" stroke="#F5F4F8"/>
</g>
<defs>
<clipPath id="clip0_8935_65572">
<rect width="30" height="24" rx="5" fill="white"/>
</clipPath>
</defs>
</svg>
