<svg data-name="KR" viewBox="0 0 30 24" fill="none" xmlns="http://www.w3.org/2000/svg">
<rect x="0.5" y="0.5" width="29" height="23" rx="4.5" fill="white"/>
<rect x="0.5" y="0.5" width="29" height="23" rx="4.5" stroke="#F5F4F8"/>
<path fill-rule="evenodd" clip-rule="evenodd" d="M15.0002 17.4C17.7617 17.4 20.0002 15.2062 20.0002 12.5C20.0002 9.79378 17.7617 7.59998 15.0002 7.59998C12.2388 7.59998 10.0002 9.79378 10.0002 12.5C10.0002 15.2062 12.2388 17.4 15.0002 17.4Z" fill="#E01B41"/>
<mask id="mask0_2161_14237" style="mask-type:luminance" maskUnits="userSpaceOnUse" x="10" y="7" width="11" height="11">
<path fill-rule="evenodd" clip-rule="evenodd" d="M15.0002 17.4C17.7617 17.4 20.0002 15.2062 20.0002 12.5C20.0002 9.79378 17.7617 7.59998 15.0002 7.59998C12.2388 7.59998 10.0002 9.79378 10.0002 12.5C10.0002 15.2062 12.2388 17.4 15.0002 17.4Z" fill="white"/>
</mask>
<path fill-rule="evenodd" clip-rule="evenodd" d="M10.0002 13.2C11.4287 14.5125 13.5716 15.3 15.0002 13.2C16.4287 11.1 19.2859 11.1 20.0002 13.2C20.7144 15.3 20.0002 17.4 20.0002 17.4H10.0002C10.0002 17.4 8.57158 11.8875 10.0002 13.2Z" fill="#0E4B9C"/>
<path opacity="0.75" fill-rule="evenodd" clip-rule="evenodd" d="M22.2604 5.96712C22.1001 6.05777 22.046 6.25985 22.1395 6.41847L23.9439 9.48137C24.0374 9.63999 24.243 9.69508 24.4032 9.60442L25.0602 9.23272C25.2204 9.14206 25.2745 8.93999 25.1811 8.78137L23.3766 5.71846C23.2832 5.55985 23.0775 5.50476 22.9173 5.59541L22.2604 5.96712ZM20.4047 7.01712C20.2444 7.10777 20.1903 7.30985 20.2838 7.46846L22.0882 10.5314C22.1817 10.69 22.3873 10.7451 22.5475 10.6544L23.2045 10.2827C23.3647 10.1921 23.4188 9.98999 23.3254 9.83137L21.5209 6.76846C21.4275 6.60985 21.2218 6.55476 21.0616 6.64541L20.4047 7.01712ZM4.81898 16.2185C4.72554 16.0599 4.77967 15.8578 4.9399 15.7672L5.59685 15.3955C5.75707 15.3048 5.96272 15.3599 6.05616 15.5185L7.86062 18.5814C7.95407 18.74 7.89993 18.9421 7.73971 19.0328L7.08276 19.4045C6.92253 19.4951 6.71689 19.44 6.62344 19.2814L4.81898 16.2185ZM6.7956 14.7172C6.63538 14.8078 6.58124 15.0099 6.67469 15.1685L8.47915 18.2314C8.57259 18.39 8.77823 18.4451 8.93846 18.3545L9.59541 17.9828C9.75563 17.8921 9.80977 17.69 9.71633 17.5314L7.91186 14.4685C7.81842 14.3099 7.61278 14.2548 7.45255 14.3455L6.7956 14.7172ZM22.0882 14.4685C22.1817 14.3099 22.3873 14.2548 22.5475 14.3454L23.2045 14.7171C23.3647 14.8078 23.4188 15.0099 23.3254 15.1685L21.5209 18.2314C21.4275 18.39 21.2218 18.4451 21.0616 18.3545L20.4047 17.9827C20.2444 17.8921 20.1903 17.69 20.2838 17.5314L22.0882 14.4685ZM24.4032 15.3954C24.243 15.3048 24.0374 15.3599 23.9439 15.5185L22.1395 18.5814C22.046 18.74 22.1001 18.9421 22.2604 19.0328L22.9173 19.4045C23.0775 19.4951 23.2832 19.44 23.3766 19.2814L25.1811 16.2185C25.2745 16.0599 25.2204 15.8578 25.0602 15.7671L24.4032 15.3954ZM6.62344 5.71852C6.71689 5.55991 6.92253 5.50481 7.08276 5.59547L7.73971 5.96718C7.89993 6.05783 7.95407 6.25991 7.86062 6.41852L6.05616 9.48143C5.96272 9.64005 5.75707 9.69514 5.59685 9.60448L4.9399 9.23278C4.77967 9.14212 4.72554 8.94005 4.81898 8.78143L6.62344 5.71852ZM8.93846 6.64547C8.77823 6.55481 8.57259 6.60991 8.47915 6.76852L6.67469 9.83143C6.58124 9.99005 6.63538 10.1921 6.7956 10.2828L7.45255 10.6545C7.61278 10.7451 7.81842 10.69 7.91186 10.5314L9.71632 7.46852C9.80977 7.30991 9.75563 7.10783 9.59541 7.01718L8.93846 6.64547Z" fill="#262626"/>
</svg>
