<svg viewBox="0 0 29 23" fill="none" xmlns="http://www.w3.org/2000/svg">
<g id="Flag">
<path id="Rectangle 511" fill-rule="evenodd" clip-rule="evenodd" d="M34 0H0V1.6H34V0ZM34 3.20007H0V4.80007H34V3.20007ZM0 6.40002H34V8.00002H0V6.40002ZM34 9.6001H0V11.2001H34V9.6001ZM0 12.7999H34V14.3999H0V12.7999ZM34 16H0V17.6H34V16ZM0 19.1999H34V20.7999H0V19.1999ZM34 22.4H0V24H34V22.4Z" fill="#D02F44"/>
<rect id="Rectangle 511_2" width="14.5714" height="11.2" fill="#46467F"/>
<g id="Oval 43" filter="url(#filter0_d_8935_65650)">
<path fill-rule="evenodd" clip-rule="evenodd" d="M3.23794 2.39998C3.23794 2.8418 2.87551 3.19998 2.42842 3.19998C1.98133 3.19998 1.6189 2.8418 1.6189 2.39998C1.6189 1.95815 1.98133 1.59998 2.42842 1.59998C2.87551 1.59998 3.23794 1.95815 3.23794 2.39998ZM6.47599 2.39998C6.47599 2.8418 6.11356 3.19998 5.66647 3.19998C5.21938 3.19998 4.85694 2.8418 4.85694 2.39998C4.85694 1.95815 5.21938 1.59998 5.66647 1.59998C6.11356 1.59998 6.47599 1.95815 6.47599 2.39998ZM8.90476 3.19998C9.35185 3.19998 9.71429 2.8418 9.71429 2.39998C9.71429 1.95815 9.35185 1.59998 8.90476 1.59998C8.45767 1.59998 8.09524 1.95815 8.09524 2.39998C8.09524 2.8418 8.45767 3.19998 8.90476 3.19998ZM12.9523 2.39998C12.9523 2.8418 12.5899 3.19998 12.1428 3.19998C11.6957 3.19998 11.3333 2.8418 11.3333 2.39998C11.3333 1.95815 11.6957 1.59998 12.1428 1.59998C12.5899 1.59998 12.9523 1.95815 12.9523 2.39998ZM4.04757 4.79995C4.49466 4.79995 4.85709 4.44178 4.85709 3.99995C4.85709 3.55812 4.49466 3.19995 4.04757 3.19995C3.60048 3.19995 3.23805 3.55812 3.23805 3.99995C3.23805 4.44178 3.60048 4.79995 4.04757 4.79995ZM8.09514 3.99995C8.09514 4.44178 7.7327 4.79995 7.28561 4.79995C6.83853 4.79995 6.47609 4.44178 6.47609 3.99995C6.47609 3.55812 6.83853 3.19995 7.28561 3.19995C7.7327 3.19995 8.09514 3.55812 8.09514 3.99995ZM10.5239 4.79995C10.971 4.79995 11.3334 4.44178 11.3334 3.99995C11.3334 3.55812 10.971 3.19995 10.5239 3.19995C10.0768 3.19995 9.71438 3.55812 9.71438 3.99995C9.71438 4.44178 10.0768 4.79995 10.5239 4.79995ZM12.9523 5.60005C12.9523 6.04188 12.5899 6.40005 12.1428 6.40005C11.6957 6.40005 11.3333 6.04188 11.3333 5.60005C11.3333 5.15822 11.6957 4.80005 12.1428 4.80005C12.5899 4.80005 12.9523 5.15822 12.9523 5.60005ZM8.90476 6.40005C9.35185 6.40005 9.71429 6.04188 9.71429 5.60005C9.71429 5.15822 9.35185 4.80005 8.90476 4.80005C8.45767 4.80005 8.09524 5.15822 8.09524 5.60005C8.09524 6.04188 8.45767 6.40005 8.90476 6.40005ZM6.47599 5.60005C6.47599 6.04188 6.11356 6.40005 5.66647 6.40005C5.21938 6.40005 4.85694 6.04188 4.85694 5.60005C4.85694 5.15822 5.21938 4.80005 5.66647 4.80005C6.11356 4.80005 6.47599 5.15822 6.47599 5.60005ZM2.42842 6.40005C2.87551 6.40005 3.23794 6.04188 3.23794 5.60005C3.23794 5.15822 2.87551 4.80005 2.42842 4.80005C1.98133 4.80005 1.6189 5.15822 1.6189 5.60005C1.6189 6.04188 1.98133 6.40005 2.42842 6.40005ZM4.85709 7.20002C4.85709 7.64185 4.49466 8.00002 4.04757 8.00002C3.60048 8.00002 3.23805 7.64185 3.23805 7.20002C3.23805 6.7582 3.60048 6.40002 4.04757 6.40002C4.49466 6.40002 4.85709 6.7582 4.85709 7.20002ZM7.28561 8.00002C7.7327 8.00002 8.09514 7.64185 8.09514 7.20002C8.09514 6.7582 7.7327 6.40002 7.28561 6.40002C6.83853 6.40002 6.47609 6.7582 6.47609 7.20002C6.47609 7.64185 6.83853 8.00002 7.28561 8.00002ZM11.3334 7.20002C11.3334 7.64185 10.971 8.00002 10.5239 8.00002C10.0768 8.00002 9.71438 7.64185 9.71438 7.20002C9.71438 6.7582 10.0768 6.40002 10.5239 6.40002C10.971 6.40002 11.3334 6.7582 11.3334 7.20002ZM12.1428 9.59988C12.5899 9.59988 12.9523 9.24171 12.9523 8.79988C12.9523 8.35805 12.5899 7.99988 12.1428 7.99988C11.6957 7.99988 11.3333 8.35805 11.3333 8.79988C11.3333 9.24171 11.6957 9.59988 12.1428 9.59988ZM9.71429 8.79988C9.71429 9.24171 9.35185 9.59988 8.90476 9.59988C8.45767 9.59988 8.09524 9.24171 8.09524 8.79988C8.09524 8.35805 8.45767 7.99988 8.90476 7.99988C9.35185 7.99988 9.71429 8.35805 9.71429 8.79988ZM5.66647 9.59988C6.11356 9.59988 6.47599 9.24171 6.47599 8.79988C6.47599 8.35805 6.11356 7.99988 5.66647 7.99988C5.21938 7.99988 4.85694 8.35805 4.85694 8.79988C4.85694 9.24171 5.21938 9.59988 5.66647 9.59988ZM3.23794 8.79988C3.23794 9.2417 2.87551 9.59988 2.42842 9.59988C1.98133 9.59988 1.6189 9.2417 1.6189 8.79988C1.6189 8.35805 1.98133 7.99988 2.42842 7.99988C2.87551 7.99988 3.23794 8.35805 3.23794 8.79988Z" fill="url(#paint0_linear_8935_65650)"/>
</g>
</g>
<defs>
<filter id="filter0_d_8935_65650" x="1.6189" y="1.59998" width="11.3335" height="8.99988" filterUnits="userSpaceOnUse" color-interpolation-filters="sRGB">
<feFlood flood-opacity="0" result="BackgroundImageFix"/>
<feColorMatrix in="SourceAlpha" type="matrix" values="0 0 0 0 0 0 0 0 0 0 0 0 0 0 0 0 0 0 127 0" result="hardAlpha"/>
<feOffset dy="1"/>
<feColorMatrix type="matrix" values="0 0 0 0 0 0 0 0 0 0 0 0 0 0 0 0 0 0 0.06 0"/>
<feBlend mode="normal" in2="BackgroundImageFix" result="effect1_dropShadow_8935_65650"/>
<feBlend mode="normal" in="SourceGraphic" in2="effect1_dropShadow_8935_65650" result="shape"/>
</filter>
<linearGradient id="paint0_linear_8935_65650" x1="1.6189" y1="1.59998" x2="1.6189" y2="9.59997" gradientUnits="userSpaceOnUse">
<stop stop-color="white"/>
<stop offset="1" stop-color="#F0F0F0"/>
</linearGradient>
</defs>
</svg>
