<svg width="135" height="45" viewBox="0 0 135 45" fill="none" xmlns="http://www.w3.org/2000/svg">
<rect width="135" height="45" rx="7.875" fill="black"/>
<path d="M91.7175 21.6009V24.1783H90.102V25.8685H91.7175V31.6116C91.7175 33.5727 92.6046 34.3571 94.8365 34.3571C95.2287 34.3571 95.6023 34.3104 95.9291 34.2544V32.5828C95.649 32.6109 95.4715 32.6295 95.1634 32.6295C94.1642 32.6295 93.7252 32.1626 93.7252 31.098V25.8685H95.9291V24.1783H93.7252V21.6009H91.7175Z" fill="white"/>
<path d="M101.615 34.4972C104.584 34.4972 106.405 32.5081 106.405 29.2117C106.405 25.9339 104.575 23.9355 101.615 23.9355C98.6451 23.9355 96.8148 25.9339 96.8148 29.2117C96.8148 32.5081 98.6357 34.4972 101.615 34.4972ZM101.615 32.7136C99.8684 32.7136 98.8879 31.4342 98.8879 29.2117C98.8879 27.0078 99.8684 25.7191 101.615 25.7191C103.352 25.7191 104.341 27.0078 104.341 29.2117C104.341 31.4249 103.352 32.7136 101.615 32.7136Z" fill="white"/>
<path d="M107.963 34.3011H109.971V28.2965C109.971 26.8678 111.045 25.9059 112.567 25.9059C112.922 25.9059 113.52 25.9713 113.688 26.0273V24.0476C113.473 23.9915 113.09 23.9635 112.791 23.9635C111.465 23.9635 110.335 24.6919 110.046 25.6911H109.896V24.1316H107.963V34.3011Z" fill="white"/>
<path d="M118.673 25.6444C120.158 25.6444 121.129 26.681 121.176 28.2778H116.039C116.152 26.6903 117.188 25.6444 118.673 25.6444ZM121.166 31.5556C120.793 32.3494 119.962 32.7883 118.748 32.7883C117.141 32.7883 116.105 31.6583 116.039 29.8747V29.7626H123.221V29.0623C123.221 25.8685 121.512 23.9355 118.682 23.9355C115.815 23.9355 113.994 25.9993 113.994 29.249C113.994 32.4988 115.778 34.4972 118.692 34.4972C121.017 34.4972 122.642 33.3766 123.099 31.5556H121.166Z" fill="white"/>
<path d="M78.551 30.5457C78.7058 33.0428 80.7868 34.6399 83.8841 34.6399C87.1943 34.6399 89.2656 32.9654 89.2656 30.294C89.2656 28.1937 88.0847 27.0322 85.2198 26.3644L83.6808 25.9869C81.8612 25.561 81.1256 24.9899 81.1256 23.993C81.1256 22.7348 82.2677 21.912 83.9809 21.912C85.6069 21.912 86.7297 22.7154 86.9329 24.0027H89.0429C88.9171 21.6507 86.8458 19.9956 84.0099 19.9956C80.961 19.9956 78.9284 21.6507 78.9284 24.1382C78.9284 26.1901 80.0802 27.4097 82.6064 28.0001L84.4067 28.4357C86.2554 28.8712 87.0684 29.51 87.0684 30.5747C87.0684 31.8136 85.7908 32.7138 84.0486 32.7138C82.1806 32.7138 80.8836 31.8717 80.6997 30.5457H78.551Z" fill="white"/>
<path d="M57.7527 23.9635C56.3706 23.9635 55.1753 24.6546 54.559 25.8125H54.4096V24.1316H52.4765V37.6816H54.4843V32.7603H54.643C55.1753 33.8342 56.3239 34.4692 57.7714 34.4692C60.3394 34.4692 61.9737 32.4428 61.9737 29.2117C61.9737 25.9806 60.3394 23.9635 57.7527 23.9635ZM57.1831 32.6669C55.5022 32.6669 54.4469 31.3408 54.4469 29.221C54.4469 27.0919 55.5022 25.7658 57.1924 25.7658C58.892 25.7658 59.9099 27.0639 59.9099 29.2117C59.9099 31.3689 58.892 32.6669 57.1831 32.6669Z" fill="white"/>
<path d="M68.9991 23.9635C67.617 23.9635 66.4217 24.6546 65.8054 25.8125H65.656V24.1316H63.7229V37.6816H65.7307V32.7603H65.8894C66.4217 33.8342 67.5703 34.4692 69.0178 34.4692C71.5858 34.4692 73.2201 32.4428 73.2201 29.2117C73.2201 25.9806 71.5858 23.9635 68.9991 23.9635ZM68.4295 32.6669C66.7486 32.6669 65.6933 31.3408 65.6933 29.221C65.6933 27.0919 66.7486 25.7658 68.4388 25.7658C70.1384 25.7658 71.1563 27.0639 71.1563 29.2117C71.1563 31.3689 70.1384 32.6669 68.4295 32.6669Z" fill="white"/>
<path d="M48.8743 34.3011H51.1779L46.1351 20.3344H43.8025L38.7598 34.3011H40.9859L42.2732 30.5941H47.5967L48.8743 34.3011ZM44.8575 22.8703H45.022L47.045 28.7744H42.8249L44.8575 22.8703Z" fill="white"/>
<path d="M40.1089 9.79977V16.5374H42.5415C44.5493 16.5374 45.7119 15.3001 45.7119 13.1476C45.7119 11.0278 44.5399 9.79977 42.5415 9.79977H40.1089ZM41.1548 10.7523H42.4248C43.8209 10.7523 44.6473 11.6394 44.6473 13.1616C44.6473 14.7071 43.8349 15.5849 42.4248 15.5849H41.1548V10.7523Z" fill="white"/>
<path d="M49.2726 16.6355C50.7574 16.6355 51.6679 15.6409 51.6679 13.9927C51.6679 12.3538 50.7528 11.3546 49.2726 11.3546C47.7878 11.3546 46.8727 12.3538 46.8727 13.9927C46.8727 15.6409 47.7832 16.6355 49.2726 16.6355ZM49.2726 15.7437C48.3995 15.7437 47.9092 15.104 47.9092 13.9927C47.9092 12.8908 48.3995 12.2464 49.2726 12.2464C50.1411 12.2464 50.636 12.8908 50.636 13.9927C50.636 15.0993 50.1411 15.7437 49.2726 15.7437Z" fill="white"/>
<path d="M59.4216 11.4527H58.4177L57.5119 15.3328H57.4325L56.3866 11.4527H55.4248L54.3789 15.3328H54.3042L53.3937 11.4527H52.3758L53.7765 16.5374H54.8084L55.8543 12.7927H55.9337L56.9843 16.5374H58.0255L59.4216 11.4527Z" fill="white"/>
<path d="M60.5777 16.5374H61.5816V13.5631C61.5816 12.7694 62.0531 12.2744 62.7955 12.2744C63.5379 12.2744 63.8928 12.6807 63.8928 13.4978V16.5374H64.8967V13.2456C64.8967 12.0363 64.271 11.3546 63.1364 11.3546C62.3706 11.3546 61.8664 11.6955 61.6189 12.2604H61.5442V11.4527H60.5777V16.5374Z" fill="white"/>
<path d="M66.4777 16.5374H67.4815V9.46826H66.4777V16.5374Z" fill="white"/>
<path d="M71.257 16.6355C72.7419 16.6355 73.6523 15.6409 73.6523 13.9927C73.6523 12.3538 72.7372 11.3546 71.257 11.3546C69.7722 11.3546 68.8571 12.3538 68.8571 13.9927C68.8571 15.6409 69.7676 16.6355 71.257 16.6355ZM71.257 15.7437C70.3839 15.7437 69.8936 15.104 69.8936 13.9927C69.8936 12.8908 70.3839 12.2464 71.257 12.2464C72.1255 12.2464 72.6205 12.8908 72.6205 13.9927C72.6205 15.0993 72.1255 15.7437 71.257 15.7437Z" fill="white"/>
<path d="M76.6434 15.7763C76.0971 15.7763 75.7002 15.5102 75.7002 15.0526C75.7002 14.6044 76.0178 14.3662 76.7181 14.3195L77.9601 14.2402V14.6651C77.9601 15.2954 77.3998 15.7763 76.6434 15.7763ZM76.3866 16.6215C77.0543 16.6215 77.6099 16.332 77.9134 15.823H77.9928V16.5374H78.9593V13.0635C78.9593 11.9896 78.2403 11.3546 76.9656 11.3546C75.8123 11.3546 74.9905 11.9149 74.8878 12.7881H75.859C75.9711 12.4285 76.3586 12.2231 76.9189 12.2231C77.6053 12.2231 77.9601 12.5266 77.9601 13.0635V13.5024L76.5827 13.5818C75.3734 13.6565 74.6917 14.1841 74.6917 15.0993C74.6917 16.0285 75.4061 16.6215 76.3866 16.6215Z" fill="white"/>
<path d="M82.366 16.6215C83.0664 16.6215 83.6593 16.2899 83.9628 15.7343H84.0422V16.5374H85.0041V9.46826H84.0002V12.2604H83.9255C83.65 11.7001 83.0617 11.3686 82.366 11.3686C81.082 11.3686 80.2555 12.3865 80.2555 13.9927C80.2555 15.6036 81.0726 16.6215 82.366 16.6215ZM82.6508 12.2698C83.4913 12.2698 84.0189 12.9375 84.0189 13.9974C84.0189 15.062 83.4959 15.7203 82.6508 15.7203C81.801 15.7203 81.2921 15.0713 81.2921 13.9927C81.2921 12.9235 81.8057 12.2698 82.6508 12.2698Z" fill="white"/>
<path d="M91.5139 16.6355C92.9987 16.6355 93.9092 15.6409 93.9092 13.9927C93.9092 12.3538 92.994 11.3546 91.5139 11.3546C90.0291 11.3546 89.1139 12.3538 89.1139 13.9927C89.1139 15.6409 90.0244 16.6355 91.5139 16.6355ZM91.5139 15.7437C90.6407 15.7437 90.1505 15.104 90.1505 13.9927C90.1505 12.8908 90.6407 12.2464 91.5139 12.2464C92.3823 12.2464 92.8773 12.8908 92.8773 13.9927C92.8773 15.0993 92.3823 15.7437 91.5139 15.7437Z" fill="white"/>
<path d="M95.238 16.5374H96.2419V13.5631C96.2419 12.7694 96.7135 12.2744 97.4559 12.2744C98.1983 12.2744 98.5531 12.6807 98.5531 13.4978V16.5374H99.557V13.2456C99.557 12.0363 98.9313 11.3546 97.7967 11.3546C97.031 11.3546 96.5267 11.6955 96.2792 12.2604H96.2045V11.4527H95.238V16.5374Z" fill="white"/>
<path d="M104.18 10.1873V11.476H103.373V12.3211H104.18V15.1927C104.18 16.1732 104.624 16.5654 105.74 16.5654C105.936 16.5654 106.123 16.5421 106.286 16.5141V15.6783C106.146 15.6923 106.057 15.7016 105.903 15.7016C105.404 15.7016 105.184 15.4682 105.184 14.9359V12.3211H106.286V11.476H105.184V10.1873H104.18Z" fill="white"/>
<path d="M107.634 16.5374H108.638V13.5678C108.638 12.7974 109.095 12.2791 109.917 12.2791C110.627 12.2791 111.005 12.69 111.005 13.5024V16.5374H112.009V13.255C112.009 12.0457 111.341 11.3593 110.258 11.3593C109.492 11.3593 108.955 11.7001 108.708 12.2698H108.628V9.46826H107.634V16.5374Z" fill="white"/>
<path d="M115.63 12.2091C116.373 12.2091 116.858 12.7274 116.882 13.5258H114.314C114.37 12.732 114.888 12.2091 115.63 12.2091ZM116.877 15.1647C116.69 15.5616 116.275 15.781 115.668 15.781C114.864 15.781 114.346 15.216 114.314 14.3242V14.2682H117.904V13.918C117.904 12.3211 117.05 11.3546 115.635 11.3546C114.201 11.3546 113.291 12.3865 113.291 14.0114C113.291 15.6363 114.183 16.6355 115.64 16.6355C116.802 16.6355 117.615 16.0752 117.843 15.1647H116.877Z" fill="white"/>
<path d="M27.8662 22.8385C27.8906 20.9473 28.9062 19.1579 30.5173 18.1674C29.5009 16.7158 27.7985 15.7954 26.0273 15.74C24.1381 15.5417 22.3067 16.8704 21.344 16.8704C20.3627 16.8704 18.8805 15.7597 17.2845 15.7925C15.2041 15.8597 13.2646 17.0425 12.2524 18.8614C10.0767 22.6283 11.6996 28.1645 13.7838 31.2095C14.8265 32.7005 16.0452 34.366 17.6399 34.3069C19.2003 34.2422 19.7831 33.3119 21.6667 33.3119C23.5328 33.3119 24.0796 34.3069 25.7066 34.2694C27.381 34.2422 28.436 32.7717 29.4421 31.2666C30.1914 30.2042 30.7679 29.03 31.1504 27.7875C29.1826 26.9553 27.8685 24.975 27.8662 22.8385Z" fill="white"/>
<path d="M24.7931 13.7375C25.7061 12.6415 26.1558 11.2328 26.0469 9.81055C24.6521 9.95704 23.3637 10.6237 22.4384 11.6776C21.5336 12.7074 21.0627 14.0913 21.1517 15.4592C22.547 15.4735 23.9187 14.825 24.7931 13.7375Z" fill="white"/>
</svg>
