<svg width="152" height="45" viewBox="0 0 152 45" fill="none" xmlns="http://www.w3.org/2000/svg">
<rect width="151.875" height="45" rx="5.625" fill="black"/>
<path d="M76.6541 24.4702C74.0081 24.4702 71.8515 26.4828 71.8515 29.2548C71.8515 32.01 74.0081 34.0395 76.6541 34.0395C79.3012 34.0395 81.4578 32.01 81.4578 29.2548C81.4567 26.4828 79.3001 24.4702 76.6541 24.4702ZM76.6541 32.1562C75.204 32.1562 73.9541 30.9603 73.9541 29.256C73.9541 27.5336 75.2051 26.3557 76.6541 26.3557C78.1042 26.3557 79.3541 27.5336 79.3541 29.256C79.3541 30.9592 78.1042 32.1562 76.6541 32.1562ZM66.1758 24.4702C63.5298 24.4702 61.3732 26.4828 61.3732 29.2548C61.3732 32.01 63.5298 34.0395 66.1758 34.0395C68.823 34.0395 70.9796 32.01 70.9796 29.2548C70.9796 26.4828 68.823 24.4702 66.1758 24.4702ZM66.1758 32.1562C64.7257 32.1562 63.4758 30.9603 63.4758 29.256C63.4758 27.5336 64.7268 26.3557 66.1758 26.3557C67.626 26.3557 68.8758 27.5336 68.8758 29.256C68.877 30.9592 67.626 32.1562 66.1758 32.1562ZM53.7131 25.9395V27.969H58.5708C58.4257 29.1108 58.0455 29.9445 57.465 30.5238C56.7585 31.2303 55.6526 32.01 53.7131 32.01C50.7228 32.01 48.3851 29.5991 48.3851 26.6088C48.3851 23.6186 50.7228 21.2077 53.7131 21.2077C55.3263 21.2077 56.5042 21.8422 57.3738 22.6578L58.806 21.2257C57.591 20.0658 55.9788 19.1782 53.7131 19.1782C49.617 19.1782 46.1733 22.5127 46.1733 26.6088C46.1733 30.705 49.617 34.0395 53.7131 34.0395C55.9237 34.0395 57.5921 33.3138 58.896 31.9548C60.237 30.6138 60.6543 28.7283 60.6543 27.2062C60.6543 26.736 60.6183 26.3006 60.5452 25.9383H53.7131V25.9395ZM104.685 27.5156C104.286 26.4468 103.071 24.4702 100.588 24.4702C98.1236 24.4702 96.075 26.4097 96.075 29.2548C96.075 31.9368 98.1056 34.0395 100.824 34.0395C103.016 34.0395 104.285 32.6985 104.812 31.9188L103.18 30.831C102.637 31.6286 101.893 32.154 100.824 32.154C99.7548 32.154 98.9932 31.6646 98.5038 30.7038L104.902 28.0578L104.685 27.5156ZM98.1596 29.1108C98.1056 27.2613 99.5917 26.3197 100.662 26.3197C101.495 26.3197 102.202 26.7371 102.438 27.3345L98.1596 29.1108ZM92.9587 33.7503H95.0602V19.6867H92.9587V33.7503ZM89.514 25.5401H89.442C88.9706 24.9776 88.0638 24.4702 86.9231 24.4702C84.5302 24.4702 82.3376 26.5728 82.3376 29.274C82.3376 31.956 84.5302 34.0406 86.9231 34.0406C88.065 34.0406 88.9706 33.5332 89.442 32.9538H89.514V33.6423C89.514 35.4727 88.5352 36.4515 86.9591 36.4515C85.6721 36.4515 84.8745 35.5278 84.5482 34.7482L82.7178 35.5098C83.2432 36.7777 84.6382 38.337 86.9591 38.337C89.424 38.337 91.5086 36.8868 91.5086 33.3521V24.7616H89.5151V25.5401H89.514ZM87.1042 32.1562C85.6541 32.1562 84.4402 30.9412 84.4402 29.274C84.4402 27.5876 85.6541 26.3557 87.1042 26.3557C88.5352 26.3557 89.6591 27.5876 89.6591 29.274C89.6591 30.9412 88.5352 32.1562 87.1042 32.1562ZM114.533 19.6867H109.503V33.7503H111.601V28.4223H114.532C116.858 28.4223 119.146 26.7382 119.146 24.0551C119.146 21.372 116.859 19.6867 114.533 19.6867ZM114.587 26.4648H111.601V21.6442H114.587C116.156 21.6442 117.047 22.9436 117.047 24.0551C117.047 25.1441 116.156 26.4648 114.587 26.4648ZM127.56 24.4455C126.04 24.4455 124.467 25.1148 123.815 26.5987L125.678 27.3761C126.076 26.5987 126.819 26.3445 127.596 26.3445C128.682 26.3445 129.786 26.9958 129.804 28.1535V28.2986C129.423 28.0815 128.609 27.7563 127.614 27.7563C125.606 27.7563 123.561 28.86 123.561 30.9221C123.561 32.8042 125.208 34.0158 127.053 34.0158C128.464 34.0158 129.242 33.3825 129.73 32.64H129.802V33.7256H131.83V28.3335C131.831 25.8382 129.966 24.4455 127.56 24.4455ZM127.306 32.1529C126.62 32.1529 125.66 31.8086 125.66 30.9581C125.66 29.8725 126.855 29.4562 127.887 29.4562C128.808 29.4562 129.243 29.6553 129.804 29.9265C129.64 31.2303 128.519 32.1529 127.306 32.1529ZM139.212 24.7526L136.806 30.8501H136.734L134.236 24.7526H131.975L135.72 33.2745L133.585 38.0152H135.774L141.546 24.7526H139.212ZM120.305 33.7503H122.403V19.6867H120.305V33.7503Z" fill="white"/>
<path d="M53.3448 11.5233C53.3448 12.4661 53.0658 13.2165 52.5066 13.7767C51.8721 14.4427 51.0441 14.7757 50.0271 14.7757C49.0529 14.7757 48.2238 14.4382 47.5431 13.7632C46.8614 13.0871 46.5205 12.2501 46.5205 11.2511C46.5205 10.251 46.8614 9.41397 47.5431 8.73897C48.2238 8.06284 49.0529 7.72534 50.0271 7.72534C50.5109 7.72534 50.9733 7.81984 51.412 8.00772C51.8519 8.19672 52.204 8.44759 52.4673 8.76147L51.8744 9.35547C51.4278 8.82109 50.8124 8.55447 50.026 8.55447C49.315 8.55447 48.7008 8.80422 48.1821 9.30372C47.6635 9.80322 47.4048 10.4523 47.4048 11.25C47.4048 12.0476 47.6635 12.6967 48.1821 13.1962C48.7008 13.6957 49.315 13.9455 50.026 13.9455C50.7798 13.9455 51.4086 13.6946 51.9115 13.1917C52.2378 12.8643 52.4268 12.4087 52.4774 11.8248H50.026V11.0137H53.2964C53.3301 11.1903 53.3448 11.3602 53.3448 11.5233Z" fill="white"/>
<path d="M58.5311 8.70416H55.4576V10.8439H58.2296V11.655H55.4576V13.7948H58.5311V14.625H54.5902V7.87503H58.5311V8.70416Z" fill="white"/>
<path d="M62.1884 14.625H61.321V8.70416H59.4355V7.87503H64.0739V8.70416H62.1884V14.625Z" fill="white"/>
<path d="M67.4297 14.625V7.87503H68.2971V14.625H67.4297Z" fill="white"/>
<path d="M72.1436 14.625H71.2762V8.70416H69.3907V7.87503H74.0291V8.70416H72.1436V14.625Z" fill="white"/>
<path d="M82.8095 13.7531C82.1457 14.4349 81.3211 14.7758 80.3345 14.7758C79.3479 14.7758 78.5232 14.4349 77.8606 13.7531C77.1969 13.0714 76.8661 12.2366 76.8661 11.25C76.8661 10.2634 77.1969 9.42864 77.8606 8.74689C78.5232 8.06514 79.3479 7.72314 80.3345 7.72314C81.3155 7.72314 82.139 8.06627 82.805 8.75139C83.471 9.43652 83.804 10.269 83.804 11.25C83.804 12.2366 83.4721 13.0714 82.8095 13.7531ZM78.5007 13.1873C79.0002 13.6935 79.6111 13.9455 80.3345 13.9455C81.0579 13.9455 81.6699 13.6924 82.1682 13.1873C82.6677 12.681 82.9186 12.0353 82.9186 11.25C82.9186 10.4648 82.6677 9.81902 82.1682 9.31277C81.6699 8.80652 81.0579 8.55452 80.3345 8.55452C79.6111 8.55452 79.0002 8.80764 78.5007 9.31277C78.0024 9.81902 77.7515 10.4648 77.7515 11.25C77.7515 12.0353 78.0024 12.681 78.5007 13.1873Z" fill="white"/>
<path d="M85.0213 14.625V7.87503H86.0765L89.357 13.1254H89.3941L89.357 11.8249V7.87503H90.2244V14.625H89.3188L85.8864 9.11928H85.8493L85.8864 10.4198V14.625H85.0213Z" fill="white"/>
<path d="M53.3448 11.5233C53.3448 12.4661 53.0658 13.2165 52.5066 13.7767C51.8721 14.4427 51.0441 14.7757 50.0271 14.7757C49.0529 14.7757 48.2238 14.4382 47.5431 13.7632C46.8614 13.0871 46.5205 12.2501 46.5205 11.2511C46.5205 10.251 46.8614 9.41397 47.5431 8.73897C48.2238 8.06284 49.0529 7.72534 50.0271 7.72534C50.5109 7.72534 50.9733 7.81984 51.412 8.00772C51.8519 8.19672 52.204 8.44759 52.4673 8.76147L51.8744 9.35547C51.4278 8.82109 50.8124 8.55447 50.026 8.55447C49.315 8.55447 48.7008 8.80422 48.1821 9.30372C47.6635 9.80322 47.4048 10.4523 47.4048 11.25C47.4048 12.0476 47.6635 12.6967 48.1821 13.1962C48.7008 13.6957 49.315 13.9455 50.026 13.9455C50.7798 13.9455 51.4086 13.6946 51.9115 13.1917C52.2378 12.8643 52.4268 12.4087 52.4774 11.8248H50.026V11.0137H53.2964C53.3301 11.1903 53.3448 11.3602 53.3448 11.5233Z" stroke="white" stroke-width="0.225" stroke-miterlimit="10"/>
<path d="M58.5311 8.70416H55.4576V10.8439H58.2296V11.655H55.4576V13.7948H58.5311V14.625H54.5902V7.87503H58.5311V8.70416Z" stroke="white" stroke-width="0.225" stroke-miterlimit="10"/>
<path d="M62.1884 14.625H61.321V8.70416H59.4355V7.87503H64.0739V8.70416H62.1884V14.625Z" stroke="white" stroke-width="0.225" stroke-miterlimit="10"/>
<path d="M67.4297 14.625V7.87503H68.2971V14.625H67.4297Z" stroke="white" stroke-width="0.225" stroke-miterlimit="10"/>
<path d="M72.1436 14.625H71.2762V8.70416H69.3907V7.87503H74.0291V8.70416H72.1436V14.625Z" stroke="white" stroke-width="0.225" stroke-miterlimit="10"/>
<path d="M82.8095 13.7531C82.1457 14.4349 81.3211 14.7758 80.3345 14.7758C79.3479 14.7758 78.5232 14.4349 77.8606 13.7531C77.1969 13.0714 76.8661 12.2366 76.8661 11.25C76.8661 10.2634 77.1969 9.42864 77.8606 8.74689C78.5232 8.06514 79.3479 7.72314 80.3345 7.72314C81.3155 7.72314 82.139 8.06627 82.805 8.75139C83.471 9.43652 83.804 10.269 83.804 11.25C83.804 12.2366 83.4721 13.0714 82.8095 13.7531ZM78.5007 13.1873C79.0002 13.6935 79.6111 13.9455 80.3345 13.9455C81.0579 13.9455 81.6699 13.6924 82.1682 13.1873C82.6677 12.681 82.9186 12.0353 82.9186 11.25C82.9186 10.4648 82.6677 9.81902 82.1682 9.31277C81.6699 8.80652 81.0579 8.55452 80.3345 8.55452C79.6111 8.55452 79.0002 8.80764 78.5007 9.31277C78.0024 9.81902 77.7515 10.4648 77.7515 11.25C77.7515 12.0353 78.0024 12.681 78.5007 13.1873Z" stroke="white" stroke-width="0.225" stroke-miterlimit="10"/>
<path d="M85.0213 14.625V7.87503H86.0765L89.357 13.1254H89.3941L89.357 11.8249V7.87503H90.2244V14.625H89.3188L85.8864 9.11928H85.8493L85.8864 10.4198V14.625H85.0213Z" stroke="white" stroke-width="0.225" stroke-miterlimit="10"/>
<g filter="url(#filter0_ii_4557_5312)">
<path d="M11.7406 8.48007C11.4132 8.82657 11.2197 9.36433 11.2197 10.0607V34.9412C11.2197 35.6387 11.4132 36.1753 11.7406 36.5218L11.8239 36.6028L25.7615 22.6652V22.5009V22.3367L11.8239 8.39795L11.7406 8.48007Z" fill="url(#paint0_linear_4557_5312)"/>
<path d="M30.4064 27.3126L25.7612 22.6652V22.5009V22.3367L30.4075 17.6904L30.5121 17.7501L36.0167 20.8776C37.5884 21.7708 37.5884 23.2322 36.0167 24.1266L30.5121 27.2541L30.4064 27.3126Z" fill="url(#paint1_linear_4557_5312)"/>
<g filter="url(#filter1_i_4557_5312)">
<path d="M30.5144 27.2535L25.7624 22.5015L11.7427 36.5223C12.2602 37.0713 13.1163 37.1388 14.0804 36.5921L30.5144 27.2535Z" fill="url(#paint2_linear_4557_5312)"/>
</g>
<path d="M30.5144 17.7493L14.0804 8.41178C13.1163 7.8639 12.2602 7.93253 11.7427 8.48153L25.7635 22.5024L30.5144 17.7493Z" fill="url(#paint3_linear_4557_5312)"/>
</g>
<defs>
<filter id="filter0_ii_4557_5312" x="11.2197" y="8.03369" width="25.9756" height="28.936" filterUnits="userSpaceOnUse" color-interpolation-filters="sRGB">
<feFlood flood-opacity="0" result="BackgroundImageFix"/>
<feBlend mode="normal" in="SourceGraphic" in2="BackgroundImageFix" result="shape"/>
<feColorMatrix in="SourceAlpha" type="matrix" values="0 0 0 0 0 0 0 0 0 0 0 0 0 0 0 0 0 0 127 0" result="hardAlpha"/>
<feOffset dy="-0.16875"/>
<feComposite in2="hardAlpha" operator="arithmetic" k2="-1" k3="1"/>
<feColorMatrix type="matrix" values="0 0 0 0 0 0 0 0 0 0 0 0 0 0 0 0 0 0 0.12 0"/>
<feBlend mode="normal" in2="shape" result="effect1_innerShadow_4557_5312"/>
<feColorMatrix in="SourceAlpha" type="matrix" values="0 0 0 0 0 0 0 0 0 0 0 0 0 0 0 0 0 0 127 0" result="hardAlpha"/>
<feOffset dy="0.16875"/>
<feComposite in2="hardAlpha" operator="arithmetic" k2="-1" k3="1"/>
<feColorMatrix type="matrix" values="0 0 0 0 1 0 0 0 0 1 0 0 0 0 1 0 0 0 0.25 0"/>
<feBlend mode="normal" in2="effect1_innerShadow_4557_5312" result="effect2_innerShadow_4557_5312"/>
</filter>
<filter id="filter1_i_4557_5312" x="11.7427" y="22.5015" width="18.772" height="14.4683" filterUnits="userSpaceOnUse" color-interpolation-filters="sRGB">
<feFlood flood-opacity="0" result="BackgroundImageFix"/>
<feBlend mode="normal" in="SourceGraphic" in2="BackgroundImageFix" result="shape"/>
<feColorMatrix in="SourceAlpha" type="matrix" values="0 0 0 0 0 0 0 0 0 0 0 0 0 0 0 0 0 0 127 0" result="hardAlpha"/>
<feOffset dy="-0.16875"/>
<feComposite in2="hardAlpha" operator="arithmetic" k2="-1" k3="1"/>
<feColorMatrix type="matrix" values="0 0 0 0 0 0 0 0 0 0 0 0 0 0 0 0 0 0 0.08 0"/>
<feBlend mode="normal" in2="shape" result="effect1_innerShadow_4557_5312"/>
</filter>
<linearGradient id="paint0_linear_4557_5312" x1="24.526" y1="9.79745" x2="5.64625" y2="28.6772" gradientUnits="userSpaceOnUse">
<stop stop-color="#00A0FF"/>
<stop offset="0.0066" stop-color="#00A1FF"/>
<stop offset="0.2601" stop-color="#00BEFF"/>
<stop offset="0.5122" stop-color="#00D2FF"/>
<stop offset="0.7604" stop-color="#00DFFF"/>
<stop offset="1" stop-color="#00E3FF"/>
</linearGradient>
<linearGradient id="paint1_linear_4557_5312" x1="38.0625" y1="22.5009" x2="10.8422" y2="22.5009" gradientUnits="userSpaceOnUse">
<stop stop-color="#FFE000"/>
<stop offset="0.4087" stop-color="#FFBD00"/>
<stop offset="0.7754" stop-color="#FFA500"/>
<stop offset="1" stop-color="#FF9C00"/>
</linearGradient>
<linearGradient id="paint2_linear_4557_5312" x1="27.9338" y1="25.0821" x2="2.33048" y2="50.6854" gradientUnits="userSpaceOnUse">
<stop stop-color="#FF3A44"/>
<stop offset="1" stop-color="#C31162"/>
</linearGradient>
<linearGradient id="paint3_linear_4557_5312" x1="8.21175" y1="0.199052" x2="19.6443" y2="11.6316" gradientUnits="userSpaceOnUse">
<stop stop-color="#32A071"/>
<stop offset="0.0685" stop-color="#2DA771"/>
<stop offset="0.4762" stop-color="#15CF74"/>
<stop offset="0.8009" stop-color="#06E775"/>
<stop offset="1" stop-color="#00F076"/>
</linearGradient>
</defs>
</svg>
