<svg viewBox="0 0 60 60" fill="none" xmlns="http://www.w3.org/2000/svg">
<g id="05">
<path id="Vector" d="M15 50V45C15 42.3478 16.0536 39.8043 17.9289 37.9289C19.8043 36.0536 22.3478 35 25 35H35C37.6522 35 40.1957 36.0536 42.0711 37.9289C43.9464 39.8043 45 42.3478 45 45V50M20 20C20 22.6522 21.0536 25.1957 22.9289 27.0711C24.8043 28.9464 27.3478 30 30 30C32.6522 30 35.1957 28.9464 37.0711 27.0711C38.9464 25.1957 40 22.6522 40 20C40 17.3478 38.9464 14.8043 37.0711 12.9289C35.1957 11.0536 32.6522 10 30 10C27.3478 10 24.8043 11.0536 22.9289 12.9289C21.0536 14.8043 20 17.3478 20 20Z" stroke="#494A52" stroke-width="1.5" stroke-linecap="round" stroke-linejoin="round"/>
</g>
</svg>
